<?xml version="1.0" encoding="UTF-8" standalone="no"?>
<!-- Generator: Adobe Illustrator 16.0.0, SVG Export Plug-In . SVG Version: 6.00 Build 0)  -->

<svg
   xmlns:dc="http://purl.org/dc/elements/1.1/"
   xmlns:cc="http://creativecommons.org/ns#"
   xmlns:rdf="http://www.w3.org/1999/02/22-rdf-syntax-ns#"
   xmlns:svg="http://www.w3.org/2000/svg"
   xmlns="http://www.w3.org/2000/svg"
   xmlns:xlink="http://www.w3.org/1999/xlink"
   xmlns:sodipodi="http://sodipodi.sourceforge.net/DTD/sodipodi-0.dtd"
   xmlns:inkscape="http://www.inkscape.org/namespaces/inkscape"
   version="1.1"
   id="Layer_1"
   x="0px"
   y="0px"
   width="480"
   height="280"
   viewBox="0 0 480 280"
   enable-background="new 0 0 480 350"
   xml:space="preserve"
   inkscape:version="0.91 r13725"
   sodipodi:docname="11.html"><metadata
     id="metadata133"><rdf:RDF><cc:Work
         rdf:about=""><dc:format>image/svg+xml</dc:format><dc:type
           rdf:resource="http://purl.org/dc/dcmitype/StillImage" /><dc:title></dc:title></cc:Work></rdf:RDF></metadata><defs
     id="defs131" /><sodipodi:namedview
     pagecolor="#ffffff"
     bordercolor="#666666"
     borderopacity="1"
     objecttolerance="10"
     gridtolerance="10"
     guidetolerance="10"
     inkscape:pageopacity="0"
     inkscape:pageshadow="2"
     inkscape:window-width="1920"
     inkscape:window-height="1005"
     id="namedview129"
     showgrid="false"
     inkscape:zoom="0.67428571"
     inkscape:cx="-358.5841"
     inkscape:cy="149.36435"
     inkscape:window-x="-9"
     inkscape:window-y="-9"
     inkscape:window-maximized="1"
     inkscape:current-layer="Layer_1" /><g
     id="g4198"
     transform="matrix(0.78408,0,0,0.78408,51.634189,64.074397)"><g
       transform="translate(0,-70)"
       id="g3"><defs
         id="defs5"><path
           inkscape:connector-curvature="0"
           d="m 238.829,211.081 c 0.795,5.712 2.367,8.274 7.441,10.142 0.051,-0.046 0.098,-0.046 0.152,-0.046 -0.643,-2.364 -1.332,-4.681 -1.975,-7.044 0.3,-0.203 0.541,-0.447 0.783,-0.692 0.997,-0.047 0.892,0.245 1.64,0.489 -0.156,-0.438 -0.301,-0.884 -0.448,-1.328 -0.3,-0.244 -0.589,-0.489 -0.837,-0.739 -1.173,0.124 -2.166,-0.148 -3.17,-0.42 -0.842,-0.222 -1.674,-0.445 -2.617,-0.445 -0.307,-10e-4 -0.634,0.023 -0.969,0.083 m 25.039,2.849 c 1.725,0.495 2.813,2.022 4.385,3.058 1.434,0.544 2.866,1.087 4.296,1.627 0.047,-0.1 0.145,-0.197 0.291,-0.291 -0.146,-1.133 -0.244,-1.628 0.889,-2.223 2.266,0 4.093,0.642 6.359,0.938 0.545,1.872 1.284,3.895 2.271,4.884 1.23,0.438 2.508,0.836 3.742,1.23 3.107,0.54 7.444,-0.938 10.942,-1.93 -0.936,-0.484 -1.873,-1.031 -2.812,-1.521 -1.573,-1.628 -4.043,-3.206 -6.211,-3.699 -1.328,0.79 -2.66,1.622 -3.988,2.371 -0.202,-0.152 -0.393,-0.347 -0.592,-0.601 0,-1.031 -0.102,-0.786 -0.643,-1.868 -5.027,1.72 -5.817,-2.563 -8.427,-3.992 -1.775,1.082 -2.857,2.711 -4.342,3.649 -1.776,-0.199 -3.003,-1.286 -4.335,-2.317 0.047,-0.743 0.047,-1.531 0.047,-2.316 -0.592,-0.395 -0.731,-0.496 -1.623,-0.496 -0.05,1.179 -0.147,2.321 -0.249,3.497 m 32.388,-19.467 c 0.347,0.199 0.639,0.395 0.981,0.495 -0.589,1.877 -1.429,3.45 -2.169,5.225 -3.497,0.585 -13.797,6.406 -17.793,6.112 l 0.297,-0.301 c 0.198,-0.245 0.393,-0.538 0.541,-0.834 -2.169,-0.494 -4.385,-0.985 -6.504,-1.525 -1.233,0.786 -2.807,1.966 -3.356,3.103 0.206,0.145 0.397,0.246 0.601,0.398 3.84,-0.398 6.156,1.378 9.064,2.95 5.814,-2.067 11.484,-6.159 17.547,-7.588 0,0.102 0.051,0.147 0.051,0.196 0,0.148 -0.051,0.297 -0.051,0.445 -0.639,0.292 -1.327,0.593 -1.967,0.887 0.047,0.148 0.047,0.246 0.142,0.395 4.194,-1.234 8.088,-1.184 10.849,-4.583 -0.102,-0.593 -0.198,-1.086 -0.296,-1.582 -0.152,0 -0.296,0.051 -0.397,0.152 -0.394,0.047 -0.786,0.152 -1.184,0.195 -0.347,-0.491 -0.689,-0.888 -1.079,-1.328 -0.397,0.837 -0.79,1.133 -1.632,1.819 -0.541,-0.246 -1.086,-0.44 -1.674,-0.64 -0.541,-2.017 -0.541,-6.359 -1.53,-7.001 -0.195,0.989 -0.297,2.022 -0.441,3.01 m -86.506,0.44 c 0.391,1.281 0.839,2.521 1.229,3.798 1.879,0.988 7.445,2.954 10.849,1.876 0,-0.051 0.047,-0.152 0.101,-0.246 -1.285,-4.146 -4.79,-13.655 -7.348,-14.835 -1.578,3.15 -3.206,6.307 -4.831,9.407 m -5.567,12.423 c 0.343,0.051 0.588,0.098 0.886,0.152 -0.343,0.022 -0.452,0.053 -0.524,0.053 -0.078,0 -0.097,-0.047 -0.362,-0.205 m -6.904,-26.469 c 2.711,8.034 -7.295,21.195 0.15,26.126 0.999,0.662 2.206,0.556 3.386,0.44 0.847,-0.079 1.684,-0.156 2.426,0.055 -0.491,0.146 -0.884,0.295 -1.332,0.438 0.104,0.102 0.203,0.199 0.298,0.301 8.481,-2.021 19.076,-2.762 23.959,2.813 2.266,-0.551 3.699,0.684 5.864,0.684 -0.693,-1.327 -7.492,-7.246 -8.575,-7.492 -2.913,0.148 -8.282,-0.195 -10.452,0.886 -0.146,-0.191 -0.298,-0.441 -0.494,-0.64 0.099,-0.293 0.147,-0.494 0.249,-0.735 0.442,-0.301 0.933,-0.098 0.391,-0.546 -0.493,-0.195 -0.146,0.051 -0.541,-0.445 0.249,-0.096 0.494,-0.142 0.738,-0.243 1.721,0.047 2.862,0.345 5.125,-0.098 -0.093,-0.148 -0.194,-0.25 -0.296,-0.348 -3.349,-0.147 -7.389,-0.836 -10.006,-2.566 0,-0.144 0.053,-0.292 0.053,-0.44 0.177,-0.096 0.245,-0.094 0.28,-0.081 0.052,0.008 0.037,0.016 0.214,-0.311 -0.199,-0.301 -0.495,-0.542 -0.693,-0.788 -0.246,0.39 -0.539,0.835 -0.785,1.281 -0.349,1.772 -1.879,3.746 -3.998,4.141 -0.395,-0.445 -0.833,-0.841 -1.279,-1.235 -0.444,-1.819 0.099,-3.007 0.395,-4.337 -1.431,1.188 -2.269,1.974 -4.486,1.974 -0.052,-0.444 -0.149,-0.841 -0.196,-1.234 1.822,-4.337 5.321,-10.152 8.871,-13.454 -1.114,-1.99 -6.335,-4.167 -8.835,-4.167 -0.154,-0.002 -0.302,0.007 -0.431,0.021 m 118.694,5.772 c 4.531,-1.133 7.539,-1.133 8.723,-4.883 0,-0.098 0,-0.148 -0.098,-0.195 -1.039,0.439 -2.221,0.935 -2.863,0.591 -0.193,-0.298 -0.389,-0.591 -0.537,-0.891 0.191,-0.297 0.395,-0.542 0.537,-0.786 -0.193,-0.094 -0.439,-0.148 -0.688,-0.25 -1.281,2.414 -3.992,3.945 -5.074,6.414 m -17.993,3.747 c 0.936,-0.051 0.538,0 1.18,0.442 0.25,-0.297 0.496,-0.493 0.74,-0.739 -2.117,-4.638 -4.236,-9.222 -6.355,-13.902 -0.197,-0.051 -0.443,-0.098 -0.646,-0.198 0.051,3.353 2.867,11.093 5.081,14.397 m 37.56,-15.134 c -0.596,0.639 -1.234,1.281 -1.822,1.92 0.935,0.693 0.739,0.494 0.98,1.725 -1.281,0.643 -2.117,2.021 -3.002,3.349 -1.48,0.102 -3.061,-0.14 -4.088,0.792 -0.152,0.396 -0.254,0.794 -0.395,1.188 0.094,0 0.191,-0.102 0.344,-0.102 2.558,0.201 11.873,-3.602 12.465,-4.781 -0.047,-0.047 -0.047,-0.098 -0.047,-0.152 -0.842,0.299 -0.735,0.599 -1.379,0.248 -0.147,0 -0.245,-0.046 -0.396,-0.096 -0.148,-2.17 -0.495,-2.12 -1.726,-4.39 -0.291,0.101 -0.638,0.202 -0.934,0.299 m -74.133,-5.078 c 0.242,-0.054 4.635,-0.886 4.635,-0.886 0.739,-0.152 9.167,-1.676 9.167,-1.676 l 1.133,-0.201 0.396,0.789 5.911,6.557 c 0.246,0.448 2.956,6.851 2.956,6.851 0.202,0.347 1.382,2.122 1.382,2.122 0.195,0.343 4.482,8.13 4.533,8.13 l 0.888,4.589 -1.721,0.396 -11.044,4.136 -8.431,-1.577 -2.068,0.542 -2.118,1.72 -3.449,-1.422 c -1.877,-0.442 -4.292,0.293 -6.212,0.886 -0.051,0.047 -1.425,0.442 -1.425,0.442 -0.748,0.094 -8.042,-1.673 -8.042,-1.673 l -0.689,-0.199 -0.194,-0.444 c -3.302,-3.797 -6.113,-8.579 -7.547,-12.861 l -1.129,-4.833 -2.418,-11.53 2.959,0.19 3.057,0.393 19.47,-0.441 z m -0.101,-2.268 c -6.456,0.097 -12.913,0.294 -19.369,0.397 -3.107,-0.251 -6.557,-1.238 -10.008,-0.691 -0.241,0.588 -0.241,0.247 -0.198,1.081 2.418,3.596 3.407,9.371 3.944,13.506 0.939,7.396 5.577,14.888 9.467,19.326 l -0.643,0 c 1.087,1.085 9.416,3.304 11.238,3.055 1.979,-0.297 5.129,-1.924 7.594,-1.383 1.031,0.198 1.721,1.137 2.905,1.281 0.102,0.102 0.102,0.245 0.147,0.351 -0.592,0.536 -0.592,0.388 0.098,0.833 1.379,-1.133 2.812,-2.267 4.237,-3.353 3.01,0.544 6.02,1.086 9.073,1.675 4.73,-1.772 9.416,-3.549 14.144,-5.319 2.371,-6.067 -2.559,-12.372 -6.056,-17.797 -0.989,-2.317 -1.979,-4.634 -2.959,-6.9 -0.939,-1.526 -6.706,-8.129 -8.085,-8.524 -0.296,-0.08 -0.689,-0.114 -1.153,-0.114 -3.577,-0.002 -11.54,2.097 -14.376,2.576 m -69.45,-20.756 c 1.92,2.617 8.281,4.883 11.384,4.836 0.641,-0.345 1.286,-0.691 1.926,-1.084 5.173,-0.349 18.729,6.9 21.739,11.53 0.094,-0.045 0.242,-0.096 0.394,-0.146 l -0.3,-0.74 c -5.42,-7.588 -6.994,-10.15 -14.735,-12.915 -1.18,-0.539 -2.368,-1.084 -3.45,-1.674 -1.97,0.59 -3.896,1.182 -5.867,1.775 -3.499,0.248 -6.26,-2.315 -9.217,-3.257 -0.592,0.548 -1.282,1.089 -1.874,1.675 m -24.745,16.318 c -0.048,0.594 1.626,4.784 1.626,6.118 l -0.588,0 c -3.45,-2.42 -7.346,-6.412 -7.837,-12.773 -0.298,-2.854 2.118,-9.608 0.588,-11.086 -1.032,3.152 -2.021,6.307 -3.055,9.412 -0.542,8.429 4.387,12.027 9.122,15.23 8.674,5.965 16.807,7.001 28.094,7.695 1.704,0.112 3.643,-0.023 5.611,-0.155 3.273,-0.219 6.643,-0.44 9.223,0.447 4.243,1.476 8.879,6.409 11.293,10.546 0.584,1.133 3.544,5.915 2.609,6.012 -0.05,0.055 -0.194,0.203 -0.3,0.301 1.975,2.465 3.451,4.532 4.49,6.408 l 0.292,-0.294 c -0.043,-0.152 -0.094,-0.301 -0.145,-0.398 0.145,-6.017 -9.17,-12.224 -9.61,-17.99 0.047,-0.051 0.097,-0.051 0.195,-0.098 0.347,0.098 0.689,0.148 1.083,0.246 0.394,0.743 0.74,1.428 1.137,2.117 1.526,-0.588 1.775,-1.133 2.955,-1.035 2.123,6.216 7.543,11.044 10.943,16.959 -0.145,0.199 -0.301,0.345 -0.441,0.536 -0.443,-0.141 -0.942,-0.337 -1.382,-0.536 0,0.934 -0.198,1.48 -0.985,2.021 -0.299,-0.098 -0.49,-0.203 -0.786,-0.348 -0.249,-0.642 -0.545,-1.23 -0.794,-1.821 -0.093,0.098 -0.195,0.195 -0.296,0.348 0.249,1.327 0.35,2.021 -0.639,2.465 3.45,6.207 11.631,4.485 17.5,5.712 1.92,0.739 3.794,1.434 5.717,2.173 2.706,0.542 6.309,-0.246 8.524,1.226 1.284,-0.93 0.646,-1.673 1.284,-2.95 -0.197,-0.148 -0.396,-0.296 -0.592,-0.448 -5.424,-0.395 -18.925,-1.676 -23.314,-3.844 0.195,-0.398 0.34,-0.833 0.492,-1.184 -1.18,-0.735 -2.512,-0.642 -3.396,-2.021 0.289,-0.487 0.639,-0.983 0.931,-1.527 -2.314,-3.106 -5.324,-8.871 -6.157,-13.75 -0.296,-2.122 -0.592,-4.189 -0.841,-6.216 -4.093,-5.759 -9.759,-15.278 -15.972,-17.103 -3.066,-0.896 -6.494,-0.802 -9.975,-0.71 -1.667,0.043 -3.351,0.093 -5.007,0.023 -0.098,0.15 -0.197,0.197 -0.294,0.343 0.393,0.792 0.639,0.839 0.342,1.528 -3.398,2.912 -16.365,-3.002 -19.271,-4.186 -0.737,-0.321 -1.327,-0.121 -1.869,0.083 -0.625,0.236 -1.197,0.467 -1.882,-0.083 -0.436,-0.298 -0.884,-0.641 -1.326,-0.985 l -0.296,0.291 c 0.051,0.154 0.051,0.301 0.051,0.397 -0.396,3.944 4.336,6.704 6.308,8.086 5.863,3.991 14.735,3.497 22.131,4.089 1.053,0.085 2.093,0.007 3.102,-0.066 1.941,-0.148 3.77,-0.304 5.426,0.708 -0.196,-0.054 -0.345,-0.054 -0.442,-0.102 -0.052,0.253 -0.152,0.495 -0.203,0.689 -1.182,-0.502 -4.601,0.082 -8.224,0.67 -2.72,0.44 -5.553,0.884 -7.643,0.856 -11.734,-0.241 -23.462,-3.645 -24.796,-21.094 0.146,-3.698 0.25,-7.395 0.396,-11.092 -2.56,2.419 -2.908,15.926 -3.107,20.16 m 11.241,-38.446 c -0.05,0.149 -0.05,0.296 -0.097,0.445 l 0.588,-0.594 c -0.147,0.048 -0.343,0.102 -0.491,0.149 m 134.711,1.729 c -0.44,2.017 -1.285,5.416 -2.609,6.945 0.98,2.317 2.808,3.697 4.482,4.733 0.291,-0.44 0.541,-0.835 0.79,-1.328 0.74,-1.433 1.527,-2.907 2.266,-4.338 0.736,-3.057 1.477,-6.215 2.221,-9.364 -0.6,-0.841 -2.123,-2.667 -3.061,-2.909 -0.246,4.137 -0.888,5.621 -4.089,6.261 m -16.858,-14.689 c 1.086,1.133 12.571,11.086 12.715,11.086 0.596,-1.525 1.188,-3.057 1.776,-4.582 0.197,-1.774 -12.913,-8.327 -14.538,-8.579 0.538,1.035 0.344,1.086 0.047,2.075 m -6.062,-1.484 c -1.281,0.396 -0.885,0.349 -1.379,1.387 -0.643,-0.302 -1.184,-0.598 -1.776,-0.892 0.051,0.201 0.102,0.347 0.195,0.59 1.775,2.566 3.552,5.175 5.323,7.74 1.775,0 2.812,0.201 4.785,0.052 -0.15,-0.448 -0.295,-0.888 -0.447,-1.335 0.643,-0.241 1.383,-0.493 2.021,-0.686 -3.248,-2.961 -7.886,-9.861 -12.224,-10.451 1.286,1.28 2.617,1.481 3.502,3.595 m -56.734,-7.54 c 0.148,-0.047 0.296,-0.096 0.393,-0.142 -0.144,-0.15 -0.393,-0.298 -0.541,-0.448 0.054,0.196 0.101,0.397 0.148,0.59 m 58.458,-18.386 c 0.148,0.101 0.245,0.2 0.347,0.298 2.169,0.05 4.093,1.431 5.911,2.169 0,0.543 0.102,1.038 -0.098,1.478 -1.284,1.729 -6.558,-0.047 -8.376,-0.248 -0.443,0.938 -0.888,1.877 -1.378,2.81 0.046,0.051 0.097,0.148 0.097,0.148 2.364,0.296 11.53,2.963 12.913,4.539 1.477,-1.283 1.328,-6.361 1.628,-8.727 -2.663,-1.626 -7.001,-4.881 -10.105,-5.277 -0.3,0.942 -0.592,1.877 -0.939,2.81 M 306.603,72.42 c -0.094,0.05 -0.241,0.097 -0.343,0.147 -0.101,0.59 -0.147,1.135 -0.241,1.724 0.343,-0.193 0.686,-0.343 1.031,-0.536 0.098,-0.396 0.145,-0.89 0.195,-1.335 -0.588,0.196 -0.148,0.446 -0.642,0 m -28.98,-2.267 c -1.332,0.886 -2.66,1.871 -3.992,2.81 0.195,0.245 0.397,0.444 0.588,0.641 0.775,-0.528 4.175,-3.458 3.462,-3.458 -0.015,0 -0.035,0.003 -0.058,0.007 m -19.175,2.66 0,5.423 c 0.051,0 0.102,-0.047 0.152,-0.047 0.093,-0.15 0.19,-0.201 0.342,-0.296 0.098,-0.645 0.246,-1.232 0.394,-1.827 0.054,-0.048 0.101,-0.048 0.144,-0.099 0.048,0.099 0.102,0.15 0.102,0.2 -0.054,0.44 -0.145,0.886 -0.191,1.326 0.191,0.102 0.34,0.148 0.534,0.247 4.194,-0.439 16.418,-5.072 16.465,-8.228 -5.621,1.823 -11.38,2.417 -17.942,3.301 m 13.556,-5.962 c -3.848,0.395 -7.442,0.296 -11.78,1.378 -0.494,0.837 -0.938,1.723 -1.433,2.564 0.151,0.245 0.3,0.442 0.397,0.688 0.147,-0.047 0.291,-0.098 0.393,-0.146 3.4,0.392 18.438,-2.169 19.813,-3.892 -0.145,-0.641 -0.145,-0.342 0.051,-1.086 -0.787,-0.544 -0.636,-0.495 -0.689,-1.426 -2.512,0.489 -4.287,1.675 -6.752,1.92 m 77.975,-4.194 c -0.292,1.186 -0.639,1.581 -0.051,2.319 1.535,-0.098 2.469,-0.738 3.848,-0.935 0.721,-0.056 1.491,0.189 2.262,0.434 1.267,0.407 2.548,0.814 3.653,-0.14 0,-0.394 0,-0.837 -0.051,-1.283 -1.301,0.064 -2.324,-0.15 -3.389,-0.355 -0.941,-0.187 -1.927,-0.372 -3.177,-0.372 -0.875,10e-4 -1.88,0.091 -3.095,0.332 m 7.293,-3.546 c 1.332,0.053 2.664,0.148 3.996,0.246 0.245,-0.343 0.444,-0.686 0.692,-1.036 -0.248,-0.245 -0.396,-0.442 -0.639,-0.638 0.639,-0.345 0.542,-0.25 0.834,-0.689 -3.154,-0.098 -3.847,-1.184 -6.212,-1.627 0.251,1.871 -0.095,2.561 1.329,3.744 m -8.917,-1.773 c 0.892,-0.193 1.771,-0.142 2.543,-0.091 1.188,0.075 2.149,0.157 2.632,-0.649 -1.429,-0.495 -3.006,0.195 -3.843,-1.581 0.147,-0.785 0.495,-0.931 -0.347,-1.524 -0.346,1.28 -0.638,2.61 -0.985,3.845 m 9.56,-4.782 c 0.297,0.296 0.597,0.495 0.889,0.787 0.054,0.051 0.054,0.1 0.054,0.15 l -1.237,0 c 0.101,0.344 0.249,0.641 0.346,0.984 0.246,0.296 0.49,0.639 0.74,0.937 1.133,0.15 2.271,0.248 3.399,0.342 -0.051,-0.64 -0.098,-1.229 -0.198,-1.818 -0.608,-0.96 -1.671,-1.526 -2.897,-1.526 -0.356,0 -0.722,0.045 -1.096,0.144 m -144.021,-4.439 0.003,-0.004 c -0.003,0 -0.003,0 -0.003,0.004 m 36.372,-2.413 c -3.204,3.152 -10.447,5.769 -15.377,7.2 -0.394,2.461 -0.833,4.877 -1.23,7.338 -0.397,8.629 1.721,15.084 -0.693,23.071 0.639,0.588 0.74,0.345 1.332,1.429 -1.087,0.691 -1.087,1.084 -1.624,1.968 0.19,0.3 0.393,0.594 0.537,0.892 0.051,0 0.105,-0.051 0.152,-0.051 0.736,-1.675 1.627,-3.399 1.869,-4.833 5.083,1.281 8.925,0.397 14.25,2.81 1.869,-1.528 4.68,-6.552 5.077,-8.869 0.292,-1.63 -0.253,-2.958 0.394,-4.338 0.736,0.294 0.194,0.294 0.884,0.098 0.152,-3.696 2.072,-16.513 5.471,-17.991 0.596,0.837 0.148,0.588 1.184,0.441 0.398,-0.588 0.199,-0.639 0.885,-1.18 -2.461,-3.649 -7.586,-2.563 -11.483,-2.467 -0.148,-0.343 -0.289,-0.641 -0.49,-0.886 0.146,-0.051 0.295,-0.097 0.393,-0.148 0.098,-0.245 0.249,-0.49 0.346,-0.74 3.849,-1.379 7.341,-0.693 10.796,-0.594 -2.166,-1.478 -4.188,-1.03 -6.905,-0.785 -0.482,-0.543 -1.031,-1.038 -1.522,-1.53 -3.894,2.269 -6.753,10.251 -4.187,15.283 1.227,2.262 3.642,4.879 4.187,7.342 -0.097,0.1 -0.202,0.197 -0.347,0.298 -0.245,-0.052 -0.592,-0.101 -0.837,-0.152 -1.433,-2.118 -2.858,-4.283 -4.284,-6.454 -0.054,0.048 -0.104,0.048 -0.201,0.048 0,0.89 0.147,1.036 -0.445,1.627 -0.494,-1.329 -1.28,-2.219 -1.475,-3.053 -0.102,-0.495 1.572,-13.708 1.572,-13.708 0.495,-0.983 1.775,-1.086 2.123,-2.217 -0.106,0.052 -0.204,0.102 -0.352,0.151 m 86.209,-2.66 c -0.639,0.983 -0.837,2.364 -1.083,3.746 1.383,0.838 2.711,1.724 4.039,2.565 0.938,-0.639 0.545,-0.25 1.683,0.095 -0.051,-0.983 -0.301,-0.391 0.295,-0.983 -1.238,-1.677 -3.556,-1.973 -5.125,-3.45 0,-0.052 -0.054,-0.147 -0.054,-0.198 2.22,-0.051 3.251,1.676 5.323,1.723 -0.098,-0.344 -0.199,-0.635 -0.297,-0.936 -1.521,-1.381 -3.403,-2.166 -5.179,-3.056 0.106,0.197 0.25,0.344 0.398,0.494 m -37.956,-1.086 c -0.538,0.347 -1.134,0.691 -1.722,1.034 0.047,0.053 0.047,0.1 0.098,0.15 0,0.048 0,0.147 0.055,0.196 1.623,-0.444 1.818,-0.592 3.691,-1.279 0,-0.051 -0.051,-0.149 -0.051,-0.203 -0.245,-0.044 -0.443,-0.093 -0.689,-0.144 -0.444,0.051 -0.887,0.144 -1.382,0.246 m 27.999,-0.048 c 0.393,0.196 0.837,0.395 1.234,0.587 l 0.639,0.645 c 0.642,-0.791 1.281,-1.576 1.876,-2.368 -0.051,-0.097 -0.151,-0.196 -0.299,-0.294 -0.588,0.197 -1.23,0.442 -1.869,0.639 0,-1.182 0.494,-1.332 1.573,-1.577 -0.44,-0.688 -0.245,-0.539 -0.889,-0.74 -0.735,1.037 -1.475,2.072 -2.265,3.108 m -37.953,92.023 c 0.245,0.047 0.541,0.102 0.837,0.148 1.083,3.695 4.143,7.741 6.113,11.291 -0.447,0.247 -0.938,0.439 -1.378,0.691 -2.121,-4.194 -4.587,-7.398 -5.572,-12.13 m -12.274,4.88 c 0.198,-1.869 0.396,-3.744 0.545,-5.615 1.379,1.478 4.089,16.213 3.497,16.807 -1.083,-3.255 -3.552,-7.098 -4.042,-11.192 m -16.114,-13.208 c 0.39,-3.403 1.328,-4.687 3.891,-7.048 -0.098,-0.15 -0.148,-0.343 -0.246,-0.547 -1.378,-0.981 -2.76,-1.968 -4.092,-2.956 -2.461,-1.625 -5.374,-1.232 -8.128,-2.412 -0.252,-0.545 -0.596,-1.084 -0.891,-1.579 -1.43,-0.833 -4.237,0.051 -4.877,-1.482 5.566,-1.674 15.917,4.786 18.825,8.976 -1.678,2.317 -2.216,5.171 -4.385,7.194 0,-0.046 -0.05,-0.099 -0.097,-0.146 m 0.635,-34.209 c 0.199,-0.047 0.351,-0.1 0.545,-0.146 0.051,0.046 0.051,0.099 0.098,0.146 -0.148,0.146 -0.342,0.297 -0.494,0.393 -0.048,-0.096 -0.095,-0.247 -0.149,-0.393 m 23.119,-7.738 c -0.051,0.15 -0.101,0.298 -0.101,0.448 -2.114,1.131 -3.4,2.905 -4.879,3.986 -1.971,1.483 -11.925,5.52 -14.046,4.393 0.104,-0.201 0.146,-0.448 0.193,-0.641 3.603,-0.055 15.679,-5.526 17.797,-8.036 0.346,-0.055 0.694,-0.099 1.036,-0.15 l 0,0 m 24.697,-0.397 0,-1.277 c 1.184,0.146 2.465,0.296 3.648,0.444 0.145,0.292 0.245,0.641 0.347,0.933 -0.202,0.054 -0.347,0.105 -0.596,0.2 -1.087,-0.146 -2.215,-0.201 -3.399,-0.3 m 5.962,-3.104 c 0.245,0.051 0.498,0.102 0.739,0.146 -0.198,0.102 -0.393,0.148 -0.587,0.247 0,-0.145 -0.051,-0.291 -0.152,-0.393 m -15.674,19.027 c -2.072,-0.888 -3.746,-2.708 -5.764,-3.647 -3.704,-1.675 -7.89,-2.512 -11.095,-4.338 0.343,-1.579 2.165,-3.199 3.057,-4.582 0.939,-1.628 0.592,-3.057 1.484,-4.786 0.043,-0.044 0.094,-0.091 0.141,-0.193 1.238,-1.581 3.948,-1.972 4.983,-3.65 2.018,-0.393 4.627,-0.783 6.061,-0.393 1.377,0.346 11.237,6.854 11.339,8.181 0,0.15 -1.285,3.501 -1.383,4.484 0.055,4.091 0.098,8.186 0.195,12.274 l -0.195,0.1 c -0.836,-0.44 -1.678,-0.837 -2.465,-1.23 -1.659,-2.334 -2.352,-2.115 -3.403,-1.902 -0.308,0.068 -0.643,0.13 -1.043,0.13 -0.515,0 -1.13,-0.11 -1.912,-0.448 m 43.918,-36.131 c 0.098,0.348 0.245,0.744 0.396,1.135 -0.342,1.233 -0.596,2.169 -1.678,3.105 0.592,0.791 0.934,0.791 0.787,1.579 0.054,1.871 -1.138,2.463 -2.021,3.847 -6.554,9.753 -14.786,8.573 -24.447,8.032 0.051,-0.448 0.102,-0.841 0.202,-1.281 0.047,-0.052 0.09,-0.052 0.19,-0.099 3.844,0.394 7.742,0.787 11.535,1.235 3.302,-0.448 10.253,-5.771 11.585,-7.543 0.639,-1.335 1.335,-2.76 1.919,-4.042 -0.101,-0.104 -0.189,-0.25 -0.291,-0.296 -1.581,-0.448 -3.205,-0.886 -4.782,-1.281 -2.068,-0.296 -5.172,1.182 -6.85,1.723 -1.024,0.343 -2.465,0.181 -3.941,0.027 -1.315,-0.142 -2.66,-0.28 -3.746,-0.074 -1.138,1.577 -2.271,3.102 -3.407,4.729 -0.394,1.182 -0.783,2.364 -1.18,3.6 l 0.643,-1.481 c 1.775,-3.845 2.807,-4.881 7.438,-5.666 l 1.775,-0.392 c 2.517,-0.691 6.017,-1.634 8.431,0.537 l 1.083,0.987 -0.495,1.328 c -2.414,6.506 -9.364,6.361 -14.438,6.31 l -4.981,-0.095 0,0.095 c -0.144,-0.051 -0.296,-0.095 -0.439,-0.095 -0.097,-0.248 -0.198,-0.495 -0.249,-0.742 0.393,-1.675 0.786,-3.35 1.184,-5.028 0.693,-2.414 2.908,-4.141 4.291,-6.259 1.85,-0.5 3.186,-0.02 4.459,0.467 0.97,0.363 1.896,0.732 2.979,0.668 2.368,-0.74 4.782,-1.478 7.104,-2.222 1.328,0.495 2.563,1.087 3.895,1.581 1.028,-1.481 2.016,-2.908 3.049,-4.389 m -23.906,-1.969 c -0.098,-0.493 -0.148,-0.935 -0.246,-1.383 0.787,-0.292 1.578,-0.59 2.414,-0.886 -1.674,-5.224 -5.868,-5.422 -8.282,-9.021 0.199,-0.245 0.394,-0.44 0.643,-0.641 7.591,0.888 17.551,7.097 23.902,11.191 0,0.146 -0.043,0.291 -0.094,0.442 -0.249,0.198 -0.49,0.448 -0.79,0.693 -2.636,-0.555 -5.175,-0.164 -7.683,0.228 -1.612,0.253 -3.205,0.502 -4.806,0.502 -1.678,0.002 -3.361,-0.276 -5.058,-1.125 m -2.664,-18.139 c -1.02,-0.149 -2.294,0.277 -3.599,0.703 -1.207,0.403 -2.452,0.798 -3.543,0.728 -2.667,-0.196 -4.193,-2.913 -7.546,-2.025 -0.293,0.246 -0.64,0.543 -0.986,0.791 0.051,0.048 0.051,0.095 0.098,0.147 2.955,-0.396 6.063,0.89 8.63,1.675 0.047,0.15 0.098,0.297 0.151,0.545 0,0.046 -0.054,0.146 -0.104,0.245 -1.48,0.393 -1.379,0.292 -2.563,0.888 -1.527,-1.482 -5.226,-1.729 -7.392,-1.626 0,0.047 0,0.144 0.047,0.197 1.23,0.833 1.581,0.983 2.321,2.56 2.262,-0.395 4.532,-0.784 6.85,-1.131 0.098,0.147 0.148,0.347 0.198,0.539 -4.536,1.877 -7.294,4.537 -10.799,7.295 -1.525,1.185 -1.92,3.007 -3.991,4.089 -0.046,-0.099 -0.101,-0.246 -0.144,-0.343 0.934,-0.59 6.301,-7.983 6.355,-8.279 0.128,-0.175 0.308,-0.158 0.506,-0.135 0.249,0.022 0.529,0.043 0.778,-0.313 -0.3,0 -0.596,-0.047 -0.892,-0.142 -1.725,0.983 -2.313,2.659 -3.551,3.592 -1.23,0.841 -3.742,1.285 -4.876,2.714 0.047,0.344 0.101,0.64 0.145,0.985 -0.319,0.467 -0.99,0.327 -1.605,0.188 -0.42,-0.095 -0.813,-0.192 -1.051,-0.091 -0.795,0.74 -1.581,1.531 -2.371,2.271 -1.92,0.837 -3.891,1.622 -5.768,2.415 -1.426,-2.368 -6.354,-0.691 -8.524,1.281 0.047,0.051 0.047,0.148 0.047,0.197 0.152,0.052 0.203,0.052 0.245,0.098 1.433,-0.197 1.729,-0.294 2.913,-0.54 0,0.245 -0.051,0.54 -0.051,0.837 1.92,-0.592 2.563,-1.182 4.833,-2.118 0.093,0.053 0.144,0.093 0.245,0.146 0,0.592 -0.051,0.345 0.101,0.837 4.137,-1.036 8.279,-2.07 12.419,-3.055 -0.102,0.096 -0.199,0.199 -0.293,0.246 -2.912,3.794 -10.307,3.403 -12.519,5.224 3.299,1.63 5.861,4.831 8.917,6.953 1.826,1.186 4.288,1.034 6.11,2.07 4.093,2.317 7.496,3.89 12.278,4.979 0.042,-0.048 0.144,-0.048 0.194,-0.099 -0.051,-0.201 -0.152,-0.349 -0.194,-0.542 -1.729,-0.94 -3.011,-0.736 -3.653,-2.319 -0.592,0.298 -1.129,0.545 -1.623,0.791 -1.04,-0.935 -2.025,-1.825 -3.007,-2.711 -0.494,0.146 -0.988,0.343 -1.483,0.491 0.054,0.203 0.101,0.396 0.202,0.592 -0.248,-0.099 -0.494,-0.144 -0.693,-0.196 -0.79,-1.973 -3.15,-2.218 -4.832,-3.795 -0.043,0.1 -0.194,0.245 -0.296,0.292 0.102,0.349 0.253,0.641 0.296,0.938 -0.296,0 -0.588,-0.049 -0.837,-0.095 0,-0.545 -0.044,-0.89 0.147,-1.285 0.646,-1.131 2.371,-1.131 2.812,-2.858 0.448,0 0.938,-0.044 1.426,-0.044 0.054,0.342 0.101,0.737 0.151,1.131 0.195,-0.298 0.343,-0.643 0.545,-0.938 0.686,-0.985 -0.643,-2.759 0,-4.241 2.217,-5.173 11.138,-14.539 15.822,-17.444 0,2.362 -1.675,3.941 -2.96,5.865 -2.465,3.746 -6.85,12.467 -7.048,17.105 0.047,-0.053 0.147,-0.053 0.147,-0.053 0.939,-1.723 1.434,-3.304 2.711,-4.928 0.693,-0.107 1.191,0.008 1.58,0.123 0.655,0.189 0.997,0.382 1.43,-0.518 1.082,-1.133 4.829,-8.727 6.503,-5.813 -0.688,1.625 -1.378,3.247 -2.067,4.877 -2.367,3.748 -4.731,7.492 -6.211,11.583 1.674,-0.641 1.92,0.296 3.154,1.431 0.047,0 0.145,-0.052 0.195,-0.1 -0.643,-2.955 4.139,-14.737 6.21,-14.69 0,0.052 0.047,0.105 0.047,0.198 0.693,3.497 -3.049,10.547 -3.89,14.097 -0.098,0.395 -0.398,1.674 -0.787,1.382 -0.35,0.1 -0.634,0.096 -0.927,0.091 -0.437,-0.003 -0.892,-0.007 -1.64,0.349 0.397,1.034 0.297,0.547 -0.346,1.38 0,0.051 0.051,0.102 0.051,0.201 1.873,-0.347 4.638,-0.347 6.163,0.344 -0.101,0.15 -0.147,0.343 -0.3,0.493 -0.413,0.02 -0.751,0 -1.086,-0.011 -0.541,-0.03 -1.086,-0.061 -1.967,0.058 0.74,0.691 1.23,1.186 2.263,1.285 0.102,0.248 0.203,0.491 0.254,0.742 -0.254,0.091 -0.597,0.243 -0.893,0.339 -1.083,-0.193 -2.216,-0.339 -3.302,-0.539 -0.297,-0.596 0.148,-0.294 -0.643,-0.596 -3.201,2.125 -19.467,-7.095 -22.574,-9.805 -1.036,0.395 -1.13,0.343 -1.277,1.082 -0.448,0.592 0.098,0.296 0.147,1.036 -1.923,0.937 -3.843,1.877 -5.721,2.81 0,0.051 0.051,0.101 0.102,0.146 2.808,-1.036 6.998,-2.806 8.524,-2.315 -0.051,0.148 -0.051,0.296 -0.094,0.446 -1.086,1.229 -2.223,2.465 -3.307,3.645 0.051,0.294 0.195,0.495 0.246,0.742 0.838,-0.494 1.43,-1.135 2.321,-1.182 -0.051,0.146 -0.051,0.294 -0.051,0.44 -2.224,1.281 -3.302,3.158 -5.124,4.484 -2.618,1.922 -14.448,5.033 -15.924,4.443 0,-0.15 0.047,-0.251 0.047,-0.397 4.14,-0.989 13.111,-4.09 16.511,-7.001 -0.051,-0.099 -0.093,-0.248 -0.093,-0.393 -3.848,1.579 -6.804,3.65 -10.503,4.04 -0.051,-0.736 -0.098,-0.342 0.152,-0.837 3.15,-2.613 8.228,-2.759 10.541,-5.518 -0.044,-0.101 -0.044,-0.147 -0.098,-0.2 -2.955,1.581 -8.275,3.998 -10.401,2.122 2.423,-1.332 8.875,-3.107 9.957,-5.323 0,-0.047 -0.047,-0.15 -0.047,-0.199 -2.215,0.985 -6.46,2.463 -8.726,3.645 -0.047,-0.245 -0.145,-0.493 -0.246,-0.736 2.418,-1.231 6.85,-2.072 9.12,-3.795 -0.494,-1.236 -0.545,-1.376 -0.592,-2.319 -4.385,1.083 -6.409,3.059 -10.452,5.276 -3.695,2.118 -11.729,3.002 -13.403,4.484 -0.151,1.776 -1.082,3.01 -0.79,5.029 3.153,-0.399 4.241,1.084 6.753,1.431 0.05,0.691 0.146,1.379 0.244,2.02 -3.695,1.034 -4.926,-0.985 -8.423,-1.04 -0.3,-1.081 -0.394,-1.134 -0.938,-1.967 1.48,-1.484 1.277,-3.599 1.434,-5.721 -0.105,-0.047 -0.203,-0.099 -0.304,-0.146 -0.145,0.343 -0.292,0.688 -0.491,1.034 -0.047,-0.197 -0.094,-0.39 -0.145,-0.542 0.051,-0.689 0.098,-1.33 0.145,-1.97 -0.094,0 -0.145,0.048 -0.194,0.048 -1.434,2.609 -3.996,5.619 -4.934,7.985 0.051,0.098 0.051,0.144 0.051,0.197 0.988,0.047 1.627,0.248 2.219,1.135 -0.346,0.093 -0.689,0.247 -1.078,0.345 0.292,0.397 0.533,0.837 0.786,1.23 -0.054,0 -0.101,0.051 -0.147,0.051 -2.367,-0.345 -3.848,-0.837 -6.363,-0.345 -0.946,-1.065 -2.815,-0.744 -4.596,-0.424 -1.191,0.216 -2.336,0.424 -3.142,0.224 0,-0.193 0.051,-0.339 0.098,-0.44 -2.263,1.378 -3.793,1.081 -5.865,-0.1 -0.097,0.1 -0.195,0.201 -0.296,0.292 -0.542,1.583 -2.017,10.553 -0.542,12.574 0.592,0.738 1.531,0.888 2.114,1.969 -0.191,0.146 -0.439,0.298 -0.639,0.444 1.531,1.579 6.364,3.501 7.049,4.829 -0.047,0.052 -0.148,0.052 -0.191,0.099 -0.199,-0.099 -0.347,-0.146 -0.545,-0.247 -1.383,0.055 -2.068,-0.59 -3.205,-0.979 -0.051,0.046 -0.102,0.046 -0.144,0.091 0.042,0.888 0.093,0.792 -0.397,1.382 -0.889,0.787 -11.733,1.922 -14.249,1.977 -2.905,0.439 -5.763,0.884 -8.672,1.328 -9.958,0.193 -22.376,2.708 -30.312,9.659 -1.332,1.186 -3.106,1.972 -3.799,3.451 1.727,-1.479 5.276,-5.03 7.693,-4.783 0.047,0.349 0.097,0.641 0.144,0.99 -1.18,0.44 -8.771,6.259 -9.657,8.181 0,0.047 0,0.1 0.049,0.146 7.539,-3.745 14.439,-11.385 23.754,-12.374 4.103,-0.428 8.232,0.425 12.159,1.275 4.14,0.902 8.065,1.801 11.5,1.196 6.168,-1.085 11.83,-3.847 17.103,-3.404 2.367,0.197 4.342,2.417 6.608,2.959 4.436,0.983 9.412,3.301 7.986,8.919 0.541,-0.101 0.051,-0.196 0.639,0 -0.494,5.77 -3.642,6.26 -7.734,9.609 -1.432,1.182 -2.32,3.203 -4.092,4.338 -1.305,0.788 -3.038,0.325 -4.58,-0.13 -0.97,-0.291 -1.857,-0.578 -2.519,-0.557 -1.874,0.098 -3.649,1.036 -5.717,0.935 -5.28,-0.294 -10.055,-3.203 -14.836,-4.731 -0.794,0.54 -0.74,0.59 -1.628,0.787 0.051,0.054 0.051,0.148 0.093,0.201 2.719,2.412 6.114,1.924 8.677,4.729 4.735,5.321 4.638,13.114 7.149,20.553 19.074,6.704 38.843,0.989 63.24,-2.411 0.051,0 0.051,0.096 0.051,0.146 -4.735,1.921 -9.462,3.843 -14.194,5.765 0,0.101 0.051,0.148 0.051,0.201 2.805,5.319 7.045,10.69 10.098,16.214 0.051,-0.051 0.102,-0.097 0.148,-0.097 -1.674,-4.338 -2.316,-7.103 -2.605,-11.441 0.537,-0.394 1.13,-0.783 1.675,-1.18 2.118,0.989 5.471,3.205 6.654,5.023 0.145,-0.043 0.246,-0.097 0.344,-0.191 -1.285,-5.277 -0.596,-10.746 -0.545,-15.674 -2.221,-1.581 -5.418,-3.994 -7.092,-6.311 -2.274,-3.055 -2.071,-6.163 -3.356,-8.528 0.295,-0.047 0.49,-0.146 0.79,-0.248 0.935,1.721 1.775,5.376 3.399,7.002 2.466,2.512 6.013,4.337 8.575,6.9 9.269,-2.907 26.028,-9.022 36.083,-6.657 1.818,0.442 7.001,1.184 7.196,4.187 0.152,1.729 -2.512,10.551 -3.104,12.77 1.086,0.884 2.119,1.679 3.154,2.512 0.102,-0.046 0.19,-0.097 0.342,-0.144 0.542,-3.896 1.088,-7.744 1.676,-11.634 -0.195,-0.444 -0.344,-0.888 -0.495,-1.332 l 2.667,-3.847 c -0.549,-0.981 -1.133,-1.969 -1.627,-3.002 -3.941,1.227 -8.334,-1.583 -12.228,-1.826 -0.693,-0.039 -1.324,0.02 -1.92,0.082 -0.845,0.084 -1.632,0.169 -2.465,-0.031 -0.102,-0.146 -0.246,-0.346 -0.347,-0.495 0.245,-0.292 0.499,-0.59 0.688,-0.888 1.979,-0.343 3.945,-0.641 5.92,-0.983 -1.484,-0.545 -3.006,-1.084 -4.486,-1.627 -0.362,-0.02 -0.705,0.276 -1.086,0.574 -0.414,0.315 -0.865,0.641 -1.43,0.559 -1.92,-0.296 -3.501,0.051 -5.666,0.448 -1.679,0.345 -3.423,0.105 -5.222,-0.146 -2.061,-0.282 -4.202,-0.56 -6.413,0.043 0.151,1.581 -2.217,1.828 -3.108,1.925 -1.328,2.165 -1.722,4.681 -2.808,6.996 -0.537,0 -0.884,0.047 -1.277,-0.146 -1.581,-1.328 0.74,-5.03 0.483,-7.102 -1.375,-0.935 -3.738,-1.921 -5.07,-2.019 -0.604,-0.057 -1.126,0.259 -1.636,0.568 -0.693,0.432 -1.363,0.869 -2.157,0.323 -0.152,-0.154 -0.246,-0.347 -0.344,-0.495 3.592,-3.797 3.84,-2.021 5.62,-7.196 -2.913,-3.406 -9.42,-5.272 -10.455,-9.364 1.433,-1.184 2.316,-2.519 4.337,-3.156 -0.144,-0.152 -0.291,-0.345 -0.389,-0.495 -2.862,-1.038 -11.492,-5.076 -11.585,-7.938 0.378,-0.032 0.713,-0.023 1.004,-0.016 0.943,0.031 1.472,0.06 2.002,-1.414 -2.664,-3.643 -4.042,-7.687 -7.89,-9.211 -0.098,0.043 -0.148,0.043 -0.199,0.043 1.531,3.549 2.664,7.741 1.683,10.5 -2.071,3.207 -4.189,6.357 -6.312,9.564 -1.827,3.3 -3.7,6.602 -5.569,9.855 -1.826,2.86 -6.998,8.378 -3.945,13.313 1.929,3.057 5.324,4.43 7.937,6.259 0.102,0.543 0.25,1.133 0.395,1.722 -1.531,0.346 -1.675,-0.247 -2.762,-0.688 0.394,0.495 0.791,0.983 1.137,1.478 -0.05,0.097 -0.05,0.196 -0.101,0.243 -0.693,0.055 -1.379,0.055 -2.067,0.099 0,0.298 -0.051,0.596 -0.102,0.888 -1.577,0 -3.007,0.2 -4.63,0.938 -2.469,-7.884 -9.319,-7.293 -12.126,-13.165 0.49,-1.575 1.082,-2.019 3.153,-2.165 1.23,2.02 1.083,3.941 3.104,4.829 0.148,-0.147 0.296,-0.243 0.491,-0.395 -0.098,-0.493 -0.195,-1.03 -0.343,-1.526 -1.036,-0.294 -1.43,-0.247 -1.975,-1.626 0,-1.084 -0.194,-1.038 -0.782,-2.264 3.306,-5.181 6.113,-11.486 7.983,-17.399 -0.301,0.146 -0.593,0.338 -0.834,0.487 -0.354,2.712 -5.771,14.445 -8.828,14.988 0,-0.053 -0.05,-0.099 -0.05,-0.201 0,-0.197 -0.056,-0.39 -0.056,-0.64 3.209,-4.631 4.984,-9.958 7.104,-15.182 2.469,0.201 7.69,-8.279 7.344,-10.746 8.384,-1.623 -7.788,-8.869 -8.38,-9.416 4.339,0.987 8.231,2.909 12.075,5.033 0.051,-0.101 0.102,-0.201 0.102,-0.247 -0.102,-0.393 -0.245,-0.742 -0.394,-1.131 -3.552,-3.848 -17.598,-5.03 -23.072,-8.78 -0.292,-0.981 -0.39,-0.888 0.105,-1.476 2.114,-1.675 6.503,0.341 8.431,0.888 -1.239,-1.234 -2.274,-2.122 -3.704,-3.55 -1.916,-1.876 -5.471,-1.135 -6.95,-3.894 0.054,-0.151 0.054,-0.298 0.054,-0.443 0.889,-0.44 1.772,-0.888 2.664,-1.332 1.238,0.849 2.325,0.767 3.458,0.691 0.974,-0.063 1.975,-0.133 3.143,0.394 -0.098,-0.742 -0.147,-0.591 0.051,-1.085 2.071,0.244 3.45,0.097 6.012,-1.23 0.538,0.59 0.246,0.641 1.234,0.59 0.542,-0.298 1.131,-0.691 1.723,-0.985 0.05,0.148 0.146,0.345 0.197,0.542 -0.197,0.841 -0.295,0.393 0,1.234 -1.281,0.344 -1.188,0.588 -2.021,1.328 0,0.102 0.05,0.146 0.05,0.197 0.242,-0.096 0.492,-0.143 0.74,-0.244 0,1.775 1.726,1.873 3.15,2.463 -0.342,0.787 -0.541,0.448 0.102,1.034 3.108,2.613 6.207,5.226 9.312,7.835 0.15,-0.341 0.303,-0.641 0.494,-0.982 -0.885,-1.627 -2.955,-4.19 -4.287,-5.224 0.342,-0.64 0.688,-1.382 0.984,-2.023 0.055,0 0.098,-0.051 0.203,-0.051 l 0,0.594 c 1.18,-1.23 1.822,-0.89 3.302,-0.689 -0.444,-0.742 -0.841,-1.528 -1.238,-2.317 0.845,-0.246 1.382,-0.74 1.974,-1.529 4.786,0.738 8.677,3.351 13.463,4.778 0.19,-0.044 0.343,-0.146 0.537,-0.197 -0.194,-0.343 -0.347,-0.736 -0.537,-1.034 3.396,-1.579 5.811,2.366 8.178,4.04 1.23,0.841 2.118,0.248 3.205,0.789 3.057,1.482 7.538,5.718 11.04,6.217 -0.051,-0.105 -0.102,-0.251 -0.152,-0.347 0.545,-4.636 -1.328,-9.17 0.791,-12.864 0.097,0 0.151,-0.054 0.202,-0.054 0.144,2.317 -1.929,12.621 0.833,14.593 0.546,0.397 1.082,0.736 1.628,1.131 0.047,-0.047 0.098,-0.094 0.199,-0.094 -2.068,-9.17 -1.629,-20.61 0.443,-28.442 7.293,1.23 25.58,-0.989 27.551,-9.958 0.989,-4.486 0.199,-6.408 -0.989,-11.386 -2.259,-1.429 -4.528,-2.86 -6.846,-4.292 -5.125,-3.201 -11.733,-4.336 -15.97,-8.524 -1.383,-1.379 -3.057,0.245 -4.139,-1.924 -0.203,-0.245 -0.352,-0.543 -0.495,-0.835 0.05,0 0.097,-0.051 0.144,-0.102 0.25,0.102 0.491,0.148 0.697,0.197 1.869,-0.837 17.146,6.211 19.366,7.545 1.674,1.034 3.602,3.203 5.817,3.002 0.346,-0.886 0.74,-1.775 1.133,-2.71 -0.051,-0.1 -0.102,-0.246 -0.145,-0.345 -5.132,-1.18 -4.879,-5.224 -12.667,-4.434 0,-0.052 -0.055,-0.099 -0.055,-0.15 0.148,-0.195 0.296,-0.397 0.396,-0.59 0.543,-0.246 1.084,-0.493 1.625,-0.791 l -0.293,-0.296 c -0.346,0.099 -0.692,0.099 -0.988,0.152 -0.102,-0.249 -0.195,-0.495 -0.293,-0.74 0.191,-0.249 0.395,-0.545 0.538,-0.841 0.546,0.051 1.036,0.102 1.534,0.148 0,-1.283 0.932,-1.575 1.873,-2.366 0,-0.048 -0.051,-0.099 -0.051,-0.146 -1.086,-0.693 -2.071,-2.123 -3.449,-2.171 0.193,1.583 -0.546,2.171 -1.582,3.253 -0.347,0.053 -0.639,0.097 -0.984,0.146 -0.347,-0.343 -0.644,-0.641 -0.932,-0.935 -0.151,0.101 -0.304,0.245 -0.494,0.394 0,0.146 -0.055,0.296 -0.055,0.448 0.495,1.425 0.837,1.727 1.628,2.314 l 0,0.639 c -0.296,0.048 -0.643,0.099 -0.985,0.15 -1.775,-1.628 -4.388,-2.37 -5.817,-4.292 0.592,-0.785 0.244,-2.414 0.295,-3.45 -0.144,0 -0.295,0 -0.439,-0.047 -0.102,0.1 -0.199,0.246 -0.299,0.292 -0.391,1.431 -0.736,2.762 -1.084,4.143 -0.35,-0.053 -0.786,-0.148 -1.133,-0.198 0.292,-2.068 1.18,-3.55 0.44,-6.013 -0.978,1.736 -1.963,3.463 -2.999,5.237 m -32.283,9.266 c 0.051,0 0.148,-0.045 0.195,-0.045 0.253,-0.203 0.393,-0.448 0.596,-0.645 0,-2.516 1.522,-4.19 2.316,-6.653 1.134,-3.501 0.736,-7.199 1.032,-10.947 -1.478,6.36 -6.159,14.795 -4.139,18.29 M 245.438,32.1 c -0.643,0.989 -1.577,1.676 -1.725,2.858 0.046,0 0.147,-0.048 0.194,-0.048 0.592,-0.987 1.234,-1.971 1.927,-2.956 -0.155,0.048 -0.248,0.095 -0.396,0.146 m 14.393,-1.036 c 0,0.89 0,1.822 0.093,2.712 0.104,0.049 0.151,0.097 0.253,0.146 0.098,-0.146 0.195,-0.245 0.293,-0.343 0.054,-0.444 0.097,-0.833 0.197,-1.332 0.246,-0.101 0.589,-0.198 0.893,-0.294 0,-0.053 -0.055,-0.149 -0.055,-0.2 -0.199,-0.294 -0.343,-0.59 -0.545,-0.886 -0.394,0.053 -0.736,0.148 -1.129,0.197 m 51.85,7.395 c -0.246,-0.641 -0.437,-1.232 -0.643,-1.873 1.188,-0.1 1.826,0.345 2.617,0.987 -0.152,0.439 -0.245,0.935 -0.394,1.38 -0.891,-0.052 -0.789,-0.344 -1.58,-0.494 m -6.211,-3.501 c 1.58,1.279 3.256,1.873 4.684,3.404 0.051,0.44 0.051,0.935 0.098,1.425 -2.414,0 -4.287,-3.248 -6.554,-3.988 -0.194,0.095 -0.296,0.246 -0.49,0.397 0.094,0.29 0.194,0.588 0.296,0.881 0.292,-0.101 0.537,-0.147 0.787,-0.247 0.051,0 0.097,-0.046 0.198,-0.046 0.44,1.083 1.873,2.169 2.858,3.598 2.761,0.098 6.503,0.59 7.982,-2.764 -1.479,-0.438 -0.841,-1.281 -1.627,-2.364 -0.495,-0.691 -7.937,-4.435 -8.824,-4.484 0.837,1.976 1.382,2.858 0.592,4.188 M 248.787,30.92 c 0.102,-0.495 0.295,-0.203 -0.051,-0.594 0,0.199 0,0.391 0.051,0.594 m -3.501,-1.088 c -1.228,2.81 -3.746,5.573 -6.16,7.395 0,0.098 0.054,0.245 0.054,0.347 2.854,-1.482 5.713,-5.326 6.654,-7.938 -0.155,0.052 -0.35,0.149 -0.548,0.196 m 18.045,15.43 -4.143,-5.667 2.168,-0.547 c 2.268,-1.771 3.154,-3.989 4.188,-6.55 l 2.024,-4.439 c 2.563,-4.585 7.293,-6.063 12.075,-3.793 l 3.057,3.398 c 1.18,3.501 -0.837,7.841 -1.429,9.122 -2.174,4.238 -5.176,7.048 -9.02,8.33 -1.966,0.671 -3.726,1.016 -5.268,1.016 -1.405,-0.002 -2.624,-0.286 -3.652,-0.87 m 3.15,-20.9 c -2.66,3.546 -2.512,10.351 -5.615,14.097 -0.635,0.783 -1.103,0.76 -1.597,0.728 -0.311,-0.012 -0.639,-0.031 -1.023,0.158 -1.13,1.135 -2.259,2.222 -3.396,3.304 0.249,0.197 0.49,0.396 0.791,0.541 2.605,0.1 7.392,1.774 9.56,3.206 0.102,0.395 0.152,0.738 0.199,1.133 -0.541,0.195 -1.137,0.298 -1.726,0.444 0.097,0.393 0.147,0.784 0.194,1.182 0.942,-0.045 1.655,0.267 2.387,0.58 0.807,0.339 1.629,0.684 2.789,0.553 -0.051,-0.046 -0.051,-0.149 -0.093,-0.194 -0.351,-0.102 -0.745,-0.298 -1.185,-0.393 0,-0.298 -0.055,-0.594 -0.097,-0.843 1.428,-0.688 0.638,-0.688 0.98,-1.524 0.768,-1.482 2.749,-1.393 4.739,-1.297 1.581,0.072 3.178,0.146 4.183,-0.576 4.634,-3.451 7.64,-14.987 7.542,-21.05 -4.388,-2.165 -9.411,-2.165 -14.933,-1.332 -0.495,-0.688 -0.344,-0.738 -1.138,-0.833 -0.836,0.685 -1.723,1.429 -2.561,2.116 m -23.115,-0.79 c 0.841,1.135 0.985,1.088 1.725,2.123 1.624,-0.495 2.173,-0.495 3.399,0.095 0,0.051 0,0.15 0.051,0.199 -1.429,0.394 -1.725,1.38 -2.955,1.674 -0.304,0.06 -0.725,0.035 -1.18,0.016 -0.732,-0.035 -1.543,-0.072 -2.021,0.23 -1.483,0.94 -2.761,3.896 -3.411,5.374 0.055,0.052 0.055,0.15 0.055,0.15 0.198,0 0.393,-0.098 0.596,-0.15 1.176,-2.118 1.869,-3.345 4.236,-4.632 0.296,2.365 -4.49,6.902 -6.309,8.281 0,0.1 0.094,0.196 0.094,0.345 3.895,-2.167 4.631,-6.457 7.987,-8.822 0.596,0.691 0.201,0.542 1.184,0.446 0.447,-0.791 0.888,-1.579 1.281,-2.372 1.184,0.349 1.826,0.349 3.01,0.89 0.736,-0.494 1.473,-0.932 2.216,-1.429 0,1.137 -0.541,1.332 -0.938,2.219 0.051,0.047 0.105,0.096 0.105,0.199 0.439,-0.499 0.884,-1.038 1.328,-1.531 0.883,0.345 0.883,0.296 0.837,1.182 -0.837,0.641 -1.188,1.135 -1.379,2.169 1.028,1.526 0.292,3.055 0.44,4.831 -0.25,0.101 -0.541,0.196 -0.74,0.294 -0.098,0 -0.098,0.053 -0.194,0.053 -1.328,-1.43 -2.663,-2.863 -3.944,-4.292 -0.102,0.1 -0.191,0.2 -0.348,0.296 -0.486,5.473 -5.962,8.826 -11.382,11.536 0,0.1 0.046,0.245 0.097,0.345 2.021,-0.693 4.092,-1.433 6.161,-2.118 -0.343,-0.495 -0.394,0 -0.199,-0.543 1.185,-1.582 7.049,-5.67 8.038,-3.203 0.892,0.342 1.18,0.245 1.869,1.184 -0.145,0.641 -0.292,1.23 -0.448,1.871 -0.136,0 -0.288,-0.052 -0.39,-0.052 -1.428,-2.364 -5.175,-1.92 -7.005,0.301 0.055,0.045 0.055,0.145 0.108,0.193 1.578,-0.687 4.141,-1.135 4.385,0.15 1.48,0.641 2.901,1.279 4.833,0.785 0.88,-0.833 1.775,-1.723 2.664,-2.56 0,-0.047 -0.055,-0.098 -0.055,-0.197 -1.091,0.15 -2.021,0.197 -2.812,-0.246 0,-0.097 -0.051,-0.15 -0.051,-0.245 1.086,0 2.169,0 3.306,-0.051 -0.05,-0.05 -0.101,-0.152 -0.101,-0.196 -1.13,-0.691 -2.267,-1.431 -3.4,-2.165 1.281,-2.323 -0.643,-5.575 0.495,-7.693 0.097,0.049 0.245,0.049 0.394,0.049 0.439,0.347 0.79,0.691 1.184,1.034 0.101,-0.098 0.151,-0.296 0.245,-0.442 -0.296,-0.052 -0.541,-0.097 -0.837,-0.149 -1.133,-2.66 0.743,-2.265 1.328,-4.042 -0.094,-0.442 -0.191,-0.886 -0.292,-1.38 0,0.052 -0.102,0.052 -0.199,0.103 -0.094,0.243 -0.194,0.491 -0.351,0.734 -0.339,0.543 -0.736,1.084 -1.078,1.629 -0.985,0.051 -1.281,-0.099 -1.822,-1.036 -0.791,0.541 -1.574,1.086 -2.367,1.624 -0.047,-0.1 -0.195,-0.193 -0.246,-0.292 0.148,-0.545 0.292,-1.036 0.443,-1.627 -0.592,0.442 -1.234,0.89 -1.83,1.281 -0.137,-0.199 -0.241,-0.347 -0.389,-0.543 0,-0.097 0.051,-0.246 0.051,-0.391 0.692,-0.446 1.378,-0.888 2.017,-1.336 0.3,0.2 0.546,0.349 0.841,0.547 0.838,-1.086 2.909,-2.712 2.96,-4.143 -2.075,1.431 -5.082,3.845 -8.232,3.253 0.245,-0.641 0.495,-1.332 0.786,-1.92 0.795,-0.593 0.689,-0.839 1.184,-1.478 -0.193,-0.052 -0.346,-0.148 -0.494,-0.25 -1.477,1.378 -2.809,3.056 -4.534,3.841 m 5.915,-5.174 c -0.242,0.44 -0.545,0.887 -0.791,1.33 0.791,0.691 0.592,1.086 1.83,1.034 -0.055,-0.74 -0.055,-0.588 0.242,-1.135 0.199,-0.046 0.342,-0.144 0.545,-0.193 0,0.049 0.047,0.146 0.047,0.193 0.098,0.942 -0.393,0.693 0.689,0.792 0.198,0.15 0.393,0.343 0.541,0.493 0.545,-0.791 0.791,-1.184 1.679,-1.874 0.292,0.298 0.592,0.495 0.888,0.791 0.241,-0.596 0.596,-1.236 0.837,-1.824 0,-0.053 0,-0.053 -0.051,-0.152 -2.561,1.036 -4.244,0.791 -6.456,0.545 m 63.038,171.58 c 0.152,-0.098 0.202,-0.199 0.346,-0.296 0.102,0.151 0.254,0.296 0.348,0.495 -0.148,0.051 -0.348,0.098 -0.541,0.199 -0.051,-0.148 -0.051,-0.297 -0.153,-0.398 m -164.33,-5.865 c -0.051,0.293 0.245,0.201 -0.396,0.739 0.147,-0.245 0.293,-0.538 0.396,-0.739 l 0,0 m -27.062,-4.047 c -0.194,0.748 -0.495,3.306 -0.689,3.599 -2.07,3.011 -15.178,13.509 -20.553,12.126 -0.296,-0.392 -0.641,-0.731 -0.987,-1.129 0.54,-0.199 1.133,-0.394 1.626,-0.544 6.361,-0.835 18.536,-9.02 20.014,-13.849 0.198,-0.054 0.394,-0.148 0.589,-0.203 l 0,0 m 2.365,13.857 c -0.051,-0.148 -0.051,-0.296 -0.097,-0.394 0.046,-0.152 0.046,-0.301 0.046,-0.449 7.446,-5.517 11.141,-10.845 13.509,-18.282 0.737,-0.051 1.478,-0.101 2.217,-0.101 0.841,2.067 1.131,3.256 1.528,5.081 0.051,0 0.146,-0.051 0.199,-0.051 0.044,-0.638 -0.053,-0.249 0.144,-0.692 0.053,0.055 0.1,0.102 0.1,0.199 -0.839,4.041 -2.611,7.196 -4.188,10.845 3.989,-2.022 4.234,-5.472 6.606,-8.135 0.148,-0.054 0.345,-0.101 0.543,-0.198 0.389,0.442 0.837,0.938 1.279,1.432 -0.691,2.559 -2.368,10.199 -4.729,9.805 0.738,-1.327 0.983,-3.103 1.328,-4.629 -0.1,-0.051 -0.194,-0.105 -0.298,-0.105 -3.397,2.917 -6.406,5.429 -11.09,6.956 0.052,-0.301 0.101,-0.589 0.148,-0.89 0.448,-1.626 1.378,-1.524 2.86,-2.465 -1.133,-1.724 4.98,-6.654 4.137,-10.992 -0.737,1.087 -1.176,0.889 -2.657,1.924 0.488,3.046 -7.691,11.142 -11.548,11.142 -0.011,-0.001 -0.025,-0.001 -0.037,-0.001 m 168.136,-165.669 0,0.049 c -0.051,0 -0.051,0.051 -0.098,0.104 0.047,-0.053 0.047,-0.104 0.098,-0.153 m 22.718,4.736 c -2.216,-4.292 -4.973,-2.664 -8.033,-4.782 0.047,-0.05 0.098,-0.15 0.147,-0.198 2.466,0.099 6.851,0.689 8.33,3.154 -0.639,0.79 0,0.886 0,1.873 -0.102,-0.047 -0.293,-0.047 -0.444,-0.047 m -21.983,-8.038 c 0.689,-0.641 1.382,-1.234 2.068,-1.822 0.101,0.296 0.198,0.494 0.249,0.788 0,0.049 0.051,0.102 0.051,0.148 -0.347,0.391 -0.689,0.837 -1.033,1.232 2.412,0.1 5.021,0.74 7.041,1.723 -0.689,2.956 -5.518,0.15 -7.041,-0.495 -0.789,0.448 -1.482,1.086 -2.07,1.727 0.638,-0.985 0.143,-2.314 0.735,-3.301 m -4.533,-4.138 c 0.986,-0.59 1.92,-1.234 2.909,-1.875 0.047,0.397 0.047,0.687 0.148,1.038 0.643,-0.105 1.277,-0.148 1.971,-0.25 0.292,1.279 -0.102,1.381 -0.25,2.366 0.939,-0.245 1.09,-0.245 1.675,0 0.055,0.1 0.055,0.15 0.055,0.246 -0.942,0.839 -1.137,1.531 -2.566,2.118 -0.541,-0.985 -1.086,-1.968 -1.675,-2.956 -0.688,0.102 -1.433,0.248 -2.169,0.296 0,-0.342 -0.055,-0.639 -0.098,-0.983 m -40.323,-2.122 c 1.036,-1.625 3.945,-3.154 6.215,-3.648 0.047,0.05 0.047,0.099 0.047,0.198 0,0.146 0,0.296 -0.047,0.396 -0.739,0.441 -1.479,0.837 -2.27,1.232 0,0.099 0.047,0.15 0.098,0.197 l 0,0.198 c 2.421,-0.296 3.208,0.245 5.276,-0.987 0.101,2.366 3.298,4.484 3.551,7.987 -0.051,0 -0.102,0.047 -0.148,0.047 -1.035,0 -0.938,-0.198 -2.024,0.247 -0.047,0.195 -0.144,0.394 -0.254,0.54 0.056,0.101 0.11,0.25 0.157,0.347 0.05,0.048 0.147,0.099 0.245,0.152 0.595,-0.249 1.237,-0.448 1.876,-0.645 0.246,1.482 -0.639,2.368 -0.104,3.351 1.087,1.674 2.52,2.169 2.368,3.995 -1.036,0.738 -1.426,1.478 -1.332,2.759 0.202,-0.199 0.396,-0.392 0.6,-0.641 4.731,-4.782 -0.254,-11.188 9.653,-16.118 5.227,0.443 9.767,4.138 15.429,3.894 0.541,4.829 -3.45,17.892 -6.504,21.737 0.094,0.446 0.195,0.888 0.241,1.377 0.051,-0.045 0.152,-0.045 0.254,-0.045 0.985,-2.12 1.97,-4.239 3.007,-6.308 0.735,-0.89 1.475,-1.774 2.211,-2.664 1.086,-2.417 0.444,-4.831 2.423,-6.9 0.046,0 0.097,-0.053 0.144,-0.053 0.148,0.6 0.199,1.188 0.148,1.875 0.479,-1.099 1.935,-1.784 2.694,-2.724 0.02,-0.027 0.043,-0.057 0.07,-0.082 -0.027,0.025 -0.047,0.054 -0.07,0.082 -5.168,6.702 -0.615,22.51 -9.79,27.321 -0.506,-0.502 -1.538,-0.379 -2.516,-0.257 -0.631,0.08 -1.25,0.162 -1.679,0.062 0.102,-0.103 0.199,-0.249 0.297,-0.348 l 0,-0.592 c 1.581,-0.343 3.154,-0.691 3.598,-1.675 -0.19,-0.147 -0.393,-0.298 -0.537,-0.444 -1.137,0.444 -2.271,0.787 -3.357,1.135 0.051,0.738 0.102,0.641 -0.051,1.083 -4.139,0.051 -7.387,-0.099 -12.173,1.478 -0.833,2.069 -1.678,4.042 -2.512,6.112 2.906,0.101 5.768,0.249 8.622,0.346 1.184,-1.036 2.371,-2.073 3.501,-3.055 1.04,-0.246 2.075,-0.448 3.158,-0.693 -0.198,-0.837 -0.495,-0.193 0.097,-0.886 4.14,3.503 19.768,-7.886 22.229,-10.203 -0.094,-0.1 -0.246,-0.195 -0.297,-0.296 -2.066,0.249 -5.665,0.196 -7.936,1.727 -1.624,1.083 -5.915,5.566 -7.59,4.484 1.577,-1.529 3.108,-3.055 4.688,-4.537 2.71,-1.479 5.468,-3.003 8.179,-4.533 0,-0.052 -0.051,-0.097 -0.051,-0.197 -0.74,-0.146 -0.639,-0.146 -1.033,-1.135 -1.876,1.135 -5.077,5.276 -7.052,4.782 0.152,-0.146 0.3,-0.396 0.448,-0.541 1.129,-0.888 2.266,-1.827 3.396,-2.664 0.051,-0.146 0.102,-0.343 0.102,-0.442 -0.148,-0.198 -0.292,-0.342 -0.394,-0.494 -0.787,0.395 -1.18,0.691 -1.92,0.446 0.047,-0.15 0.047,-0.294 0.047,-0.446 3.349,-1.677 7.543,-3.943 11.336,-3.943 0.05,-0.345 0.151,-0.74 0.194,-1.083 0,-0.101 0,-0.148 -0.043,-0.201 -1.386,0.1 -2.913,-0.294 -3.995,-0.294 -2.516,0.05 -4.486,2.611 -6.313,2.169 2.122,-2.218 7.986,-2.613 10.055,-4.48 -0.393,-1.384 -0.736,-2.716 -1.133,-4.05 1.826,-0.047 2.667,1.285 4.291,1.678 -0.693,-1.823 -0.837,-3.108 -0.935,-4.535 0.098,-0.098 0.241,-0.146 0.343,-0.296 0.147,0.052 0.245,0.052 0.394,0.052 1.975,2.56 5.821,4.089 8.574,5.025 0.102,-0.247 0.25,-0.493 0.347,-0.791 2.224,0.495 2.271,1.135 3.848,0.347 1.526,2.121 3.691,2.121 3.844,5.173 0.051,0 0.151,-0.045 0.193,-0.045 1.332,-2.218 2.221,-2.42 4.881,-2.765 0,-0.146 0,-0.243 0.05,-0.44 -3.843,-1.135 -5.767,-2.764 -8.231,-5.917 -0.889,1.082 -1.281,1.429 -2.018,2.81 -0.152,-0.096 -0.393,-0.146 -0.643,-0.197 -2.854,-5.72 -5.62,-5.272 -10.499,-7.048 -0.047,-0.346 -0.098,-0.689 -0.147,-1.033 3.399,-0.296 6.308,1.97 9.217,2.664 -0.047,-0.1 -0.047,-0.203 -0.097,-0.345 -0.152,-0.645 -0.296,-1.286 -0.444,-1.975 4.089,0.048 4.829,6.015 7.932,8.184 1.43,0.296 2.813,0.64 4.292,0.983 1.726,1.38 0.491,2.763 2.021,4.141 1.92,1.723 13.407,7.443 16.021,8.036 -0.051,-0.985 -0.102,-0.791 1.031,-1.135 1.138,-0.052 1.632,0 2.465,0.543 0.051,0.045 0.051,0.146 0.102,0.248 -0.147,0.046 -0.249,0.194 -0.347,0.292 0,2.072 -0.101,4.19 -0.101,6.313 -0.936,3.397 -1.869,6.801 -2.809,10.152 0.495,0.886 0.689,2.025 1.184,2.763 0.047,-0.053 0.098,-0.053 0.195,-0.053 -0.292,-1.328 -0.49,-2.662 -0.74,-3.99 0.943,-0.198 0.693,-0.249 1.29,0.197 0.241,0.641 0.437,1.281 0.638,1.87 0.051,0 0.145,-0.049 0.195,-0.049 0.443,-0.987 0.592,-1.575 1.725,-2.267 0.892,0.592 1.822,-0.101 3.058,-0.641 -0.148,-0.1 -0.3,-0.196 -0.44,-0.245 -0.845,-0.688 -4.046,-0.542 -4.688,-0.298 -0.981,-3.157 1.087,-7.54 0.693,-11.926 0.443,-0.15 0.888,-0.296 1.327,-0.495 1.337,1.826 6.013,3.351 8.085,3.696 1.433,-0.146 2.908,-0.345 4.392,-0.491 1.277,0.491 2.509,0.939 3.793,1.38 0.643,3.45 -1.433,3.846 -2.223,6.26 -0.495,1.478 0,3.695 -0.838,4.879 -0.49,0.195 -0.985,0.347 -1.472,0.543 -2.273,2.71 -3.703,9.465 -9.961,7.835 -1.53,-0.395 -2.66,-2.319 -3.847,-3.251 0.1,-0.199 0.201,-0.347 0.252,-0.542 3.248,0.693 3.94,3.201 9.167,1.429 0.394,-0.543 0.736,-1.086 1.129,-1.626 -1.525,-1.873 -7.445,-2.072 -10.202,-1.285 -2.021,2.517 -1.129,6.114 -2.857,8.725 -5.176,7.987 -17.895,9.763 -26.617,8.779 -0.198,0.288 -0.393,0.536 -0.592,0.833 0.643,3.304 -0.102,8.923 -0.102,13.655 0.347,2.86 0.693,5.619 0.985,8.429 0.3,3.152 2.616,7.046 0.743,8.771 3.4,5.226 3.011,12.621 0.932,18.088 -0.783,2.074 -2.213,4.097 -2.111,6.604 3.498,1.238 7.045,2.416 10.597,3.65 6.503,1.575 15.179,1.084 19.517,5.572 -0.494,2.51 0.491,3.745 0.297,5.768 -0.693,1.034 -1.43,2.014 -2.123,3.051 -1.137,4.188 -0.884,9.367 -1.623,13.507 -0.398,2.659 0,7.098 -1.772,8.773 -1.28,1.285 -10.16,4.931 -12.178,4.439 -0.789,0.787 -4.384,2.414 -5.72,2.659 -0.194,-0.343 -0.343,-0.591 -0.49,-0.883 -3.256,1.821 -6.951,1.332 -11.192,3.2 0.051,-0.591 0.105,-0.739 -0.102,-1.627 6.512,-6.504 5.227,-10.55 16.57,-9.709 0.145,0.932 -0.105,0.444 0.439,1.134 0.939,-0.202 1.826,-0.292 2.321,-1.036 -0.495,-0.49 -1.036,-0.985 -1.585,-1.581 1.039,-0.292 3.26,-2.71 4.05,-3.89 1.032,-0.347 1.722,-0.202 3.003,-1.036 0.494,-4.537 4.042,-11.585 2.363,-16.709 -1.971,-0.691 -3.497,-2.068 -5.764,-2.461 -6.262,-0.888 -31.005,4.58 -35.491,8.575 0.195,4.63 0.395,9.217 0.592,13.801 0.199,2.562 1.379,6.507 1.43,9.171 1.087,3.052 2.22,6.06 3.256,9.119 0.537,2.952 3.349,5.367 1.28,7.93 -5.327,6.459 -20.109,4.091 -24.15,10.006 2.017,1.332 4.436,1.332 6.701,2.124 0.44,0.098 1.48,0.739 0.889,1.328 3.742,1.919 7.243,3.306 10.595,6.164 -0.097,0.291 -0.197,0.638 -0.346,0.938 -4.973,2.363 -15.276,4.871 -19.222,0.638 -0.546,-1.285 -1.04,-2.566 -1.53,-3.895 -0.931,-0.299 -1.869,-0.587 -2.809,-0.942 -0.244,0.203 -0.494,0.355 -0.692,0.449 0,1.281 0.151,1.327 0.397,2.414 -3.797,1.679 -8.773,-4.335 -12.122,-5.223 -2.664,-0.735 -5.378,-0.989 -8.14,-1.336 -1.572,-0.244 -5.416,-1.817 -6.456,-0.739 1.091,1.531 2.122,9.369 2.028,11.439 -0.248,0.098 -0.502,0.199 -0.747,0.246 -5.759,-3.699 -13.205,-4.935 -12.169,-14.396 -0.642,-0.047 -1.281,-0.093 -1.923,-0.148 0.194,1.383 -0.842,2.171 -1.628,3.063 -2.021,-0.25 -6.16,-0.051 -7.742,-1.281 -0.093,-0.348 -0.194,-0.69 -0.296,-0.938 -0.342,0.047 -5.965,-2.66 -8.224,-2.808 -1.667,-0.156 -4.342,0.179 -7.35,0.51 -7.776,0.856 -17.751,1.718 -18.042,-5.791 -0.343,-7.783 5.23,-13.646 0.841,-22.422 -1.033,-0.472 -2.138,-0.324 -3.269,-0.18 -0.985,0.129 -1.984,0.258 -2.99,-0.019 -5.571,-1.375 -11.731,-2.566 -17.057,-4.486 -2.512,-0.935 -7.342,-3.742 -8.771,-6.211 -0.985,-1.624 0.343,-2.658 -1.478,-3.691 -0.053,0.048 -0.105,0.048 -0.147,0.048 -0.201,0.192 -0.396,0.444 -0.645,0.637 2.909,7.937 2.025,13.36 -2.165,18.587 -0.691,0 -0.596,-0.102 -1.134,-0.249 0.246,-1.874 1.083,-2.267 1.724,-3.941 0.196,-2.664 0.342,-5.276 0.445,-7.94 -0.149,-3.298 -2.913,-4.434 -3.354,-6.949 -0.787,-4.192 0.296,-9.021 0.837,-12.664 -1.969,3.1 -4.091,8.672 -3.992,12.664 0.25,7.541 8.326,12.517 2.461,18.187 -1.379,1.434 -0.785,2.566 -3.201,3.4 -0.098,-0.14 -0.25,-0.292 -0.343,-0.44 0.937,-3.009 2.759,-6.359 2.216,-10.008 -0.395,-2.512 -3.45,-5.128 -3.845,-8.725 -0.294,-3.45 1.038,-6.06 1.084,-9.114 -5.516,6.945 0.888,17.745 -1.084,24.393 -0.197,-0.093 -0.446,-0.241 -0.691,-0.39 -0.243,-0.055 -0.489,-0.098 -0.738,-0.148 3.45,-4.243 -8.524,-12.425 -4.927,-20.702 2.022,-4.681 6.212,-10.104 10.302,-13.604 1.775,-1.481 5.027,-2.708 5.173,-4.932 -2.165,1.532 -4.383,3.796 -6.848,5.522 -3.059,1.68 -6.166,3.401 -9.268,5.076 -1.728,1.286 -3.696,3.501 -5.47,4.634 -4.537,2.81 -11.587,3.107 -15.433,5.323 -3.15,1.774 -7.488,6.067 -9.019,8.135 0.395,0.495 0.442,0.199 0.049,0.646 -0.391,-0.105 -0.44,-0.545 -0.835,0.039 -2.716,4.295 -8.236,7.991 -11.733,12.48 0,0.039 0,0.094 0.047,0.141 0.149,-0.047 0.251,-0.047 0.348,-0.102 2.611,0.448 7.543,-1.472 9.511,-3.247 1.381,-2.169 2.81,-4.393 4.19,-6.508 4.34,-5.327 8.285,-8.082 14.69,-11.781 2.169,-1.229 6.799,-4.486 8.476,-4.188 0.149,-0.046 0.296,-0.102 0.395,-0.146 -0.046,0.292 -0.099,0.586 -0.099,0.888 -0.343,2.81 -3.647,4.776 -4.537,7.389 -3.497,10.448 -1.474,16.664 -12.613,23.855 -1.776,1.134 -5.027,4.494 -7.791,4.583 -0.551,0.024 -0.837,-0.089 -1.071,-0.199 -0.356,-0.17 -0.574,-0.337 -1.343,-0.046 -0.146,-3.204 7.097,-5.373 9.017,-7.686 5.476,-6.508 7.004,-15.433 11.437,-22.579 -0.05,-0.098 -0.05,-0.146 -0.05,-0.193 -6.11,3.799 -8.182,8.869 -12.271,13.453 -3.547,3.944 -7.149,6.405 -12.126,9.421 -2.366,1.427 -5.619,3.348 -8.725,3.641 -1.083,-0.886 -0.74,-0.933 -1.234,-1.87 -2.607,0.347 -8.917,2.117 -10.349,0.047 0.348,-0.391 0.639,-0.786 1.036,-1.23 -0.542,0 -0.641,0.343 -0.495,-0.195 3.355,-1.58 8.283,-2.071 11.093,-2.811 7.49,-5.722 11.974,-15.771 21.046,-22.18 4.537,-3.154 11.437,-2.365 16.906,-6.457 7.639,-5.767 15.672,-10.204 23.515,-14.836 0.051,0.243 0.096,0.487 0.096,0.789 1.376,-0.888 1.376,-1.038 3.057,-0.841 1.135,-1.622 1.332,-3.25 2.415,-5.025 5.325,-8.575 13.953,-16.811 23.807,-23.318 2.222,-1.474 6.067,-2.806 8.676,-3.154 4.636,-0.689 8.086,-2.264 12.374,-2.712 7.494,-0.641 16.466,0 24.995,-2.114 -4.837,-7.989 -4.735,-8.822 -3.404,-17.251 -0.74,0 -0.841,0.1 -1.332,-0.348 -0.938,-1.18 -0.491,-3.203 -0.491,-4.484 -1.433,1.922 -2.126,4.535 -4.439,5.966 -0.046,-0.2 -0.101,-0.393 -0.152,-0.594 2.317,-1.474 3.158,-4.385 4.389,-6.507 5.179,-9.165 4.634,-17.938 4.735,-29.474 -0.101,-0.15 -0.249,-0.246 -0.343,-0.345 -8.633,2.544 -16.636,1.731 -24.373,0.917 -12.648,-1.332 -24.599,-2.664 -37.438,10.668 -3.01,3.105 -6.608,7.439 -8.137,11.435 -0.641,1.628 -0.932,3.943 -1.873,5.419 -0.396,0.052 -0.787,0.099 -1.182,0.201 -0.442,-5.867 8.475,-13.756 11.583,-18.435 -0.249,-0.051 -0.442,-0.15 -0.691,-0.196 0,-0.053 -0.049,-0.104 -0.095,-0.148 2.852,-0.841 5.226,-3.45 7.983,-5.327 4.042,-2.707 11.287,-5.171 16.116,-5.566 5.208,-0.403 9.831,0.335 14.431,1.071 7.267,1.154 14.502,2.314 23.964,-0.974 0.351,-0.987 0.693,-2.023 1.036,-3.057 0.055,-0.049 0.102,-0.049 0.198,-0.095 0.051,0.342 0.097,0.687 0.152,1.034 0.884,-1.824 1.822,-3.6 2.707,-5.325 0.051,-0.049 0.151,-0.101 0.202,-0.101 0.292,0.693 0.587,1.335 0.884,2.025 -1.184,1.082 -2.072,3.006 -2.368,4.533 0,0.099 0,0.149 0.051,0.249 4.194,-2.319 13.01,-4.042 15.378,-7.841 -0.543,-0.641 -0.936,-1.131 -1.68,-1.328 -1.674,-0.284 -3.921,0.384 -6.066,1.054 -1.9,0.592 -3.727,1.188 -5.021,1.116 -0.096,-0.396 -0.096,-0.791 -0.193,-1.184 -6.017,2.07 -7.104,5.175 -13.21,6.408 0,-0.148 -0.101,-0.347 -0.151,-0.543 2.169,-0.641 4.14,-1.038 5.226,-2.417 -0.051,-0.046 -0.051,-0.095 -0.098,-0.197 -5.273,2.023 -7.936,0.592 -13.559,2.81 0,-0.046 -0.047,-0.099 -0.047,-0.196 1.612,-2.637 4.128,-2.321 6.683,-2.006 2.125,0.271 4.283,0.534 5.985,-0.899 0.642,-0.983 1.281,-1.976 1.927,-2.959 2.258,-2.267 6.402,-2.858 8.123,-5.321 -0.047,-0.101 -0.047,-0.15 -0.094,-0.203 -4.579,1.038 -18.336,9.367 -21.343,5.524 3.057,-0.839 8.875,0.446 11.336,-2.712 -0.502,-0.03 -1.021,-0.004 -1.531,0.023 -1.148,0.057 -2.282,0.115 -3.201,-0.467 0.892,-0.935 5.079,-0.493 7.053,-0.738 2.118,-0.837 4.232,-1.63 6.402,-2.418 0,-0.096 -0.047,-0.146 -0.098,-0.193 -0.144,-0.15 -0.347,-0.298 -0.541,-0.448 -4.584,1.824 -8.233,0.693 -12.423,2.418 0.054,-0.296 0.054,-0.542 0.102,-0.888 4.042,-1.873 8.625,-1.184 12.025,-5.419 0,-0.052 0,-0.099 -0.047,-0.203 -2.313,1.482 -6.012,2.71 -8.232,2.023 0.343,-0.197 0.694,-0.347 1.036,-0.542 2.559,0.049 7.691,-1.827 9.167,-4.239 -0.853,-0.019 -1.791,0.442 -2.741,0.904 -1.146,0.559 -2.302,1.117 -3.318,0.823 0,-0.103 -0.054,-0.152 -0.054,-0.199 0.74,-0.395 1.48,-0.839 1.775,-1.478 -0.888,0.193 -4.042,1.773 -5.078,0.933 5.175,-2.214 8.875,-4.091 10.846,-7.738 -0.74,-0.588 -0.643,-0.196 -0.643,-0.837 1.086,-2.313 3.847,-4.486 8.278,-6.011 0.105,0.244 0.152,0.54 0.254,0.738 -0.893,0.541 -0.943,0.74 -1.138,1.478 0,0.051 0.05,0.096 0.05,0.197 0.195,-0.102 0.491,-0.197 0.736,-0.248 m 4.093,-6.999 -2.96,1.923 -1.328,0.199 -0.444,-0.052 c -4.887,1.626 -8.282,4.19 -9.763,7.346 -0.042,0 -0.292,1.575 -0.292,1.575 l -0.445,0.642 c -1.674,1.873 -4.042,3.301 -8.134,5.028 -0.838,0.344 -1.43,1.135 -1.527,2.019 l 0.148,1.581 -0.347,1.083 -0.689,1.776 -1.133,0.691 -1.332,0.444 c -0.44,0.144 -0.985,0.29 -1.227,1.972 l -0.203,1.675 -1.822,1.135 -3.505,0.39 c -0.584,0.1 -1.176,0.3 -1.721,1.53 l 0.047,1.379 0.891,1.38 -1.234,2.169 -0.485,0.536 c 0,0.041 -0.352,1.191 -0.352,1.191 l -0.542,1.773 -1.973,0.146 -1.968,-0.296 c -4.634,-0.738 -9.417,-1.526 -14.985,-1.084 -5.277,0.397 -12.917,3.061 -17.351,6.016 l -2.86,2.169 c 0.051,-0.051 -4.34,2.759 -4.34,2.759 l -0.395,0.198 -1.036,0.343 c -0.786,0.1 -1.524,0.592 -1.869,1.235 0,0.048 -0.347,2.017 -0.347,2.017 l -0.099,0.594 -0.639,1.577 c -4.093,4.833 -8.723,10.349 -8.334,15.528 0.105,0.688 0.987,1.874 0.987,1.874 l 1.924,0.543 1.034,-0.201 c 1.531,-0.247 1.577,-0.389 1.776,-0.837 l 1.824,-4.728 0.392,-1.382 c 1.384,-3.7 4.881,-7.841 7.644,-10.697 0.588,-0.543 2.169,-2.122 2.169,-2.122 l 0.588,-0.195 -0.15,-0.198 2.666,-2.116 c 0,0 0.243,0.193 0.294,0.245 0.052,-0.052 0.194,-0.345 0.194,-0.345 l 0.598,-0.691 c 9.507,-6.558 18.431,-5.569 28.779,-4.484 6.61,0.689 13.116,1.279 20.063,0.144 l 2.516,-0.389 -0.051,2.508 c 0,8.579 -0.342,15.679 -4.287,22.776 0.046,-0.097 -0.981,1.871 -0.981,1.871 0.047,-0.046 -2.617,3.749 -2.617,3.749 -0.981,0.641 -1.429,1.918 -1.036,3.053 0.444,1.333 1.036,1.922 1.776,2.167 l 1.231,-0.095 2.071,-0.098 0.491,2.317 0.643,5.418 c 0,0.053 1.577,3.75 1.577,3.75 l -2.613,0.888 -10.102,0.691 c 0.047,0 -8.083,0.389 -8.083,0.389 l -6.901,1.383 c 0.045,0 -5.372,1.18 -5.372,1.18 -3.258,0.499 -7.393,2.023 -9.81,3.651 -10.598,6.947 -19.324,15.524 -24.644,24.099 l -1.728,3.651 -1.577,0.294 -1.383,0.246 -4.041,2.368 c -0.395,0.249 -19.72,12.669 -19.72,12.669 -2.562,1.925 -5.765,2.66 -8.524,3.304 -3.108,0.685 -5.865,1.427 -8.332,3.148 -5.173,3.6 -8.97,8.481 -12.368,12.722 l -8.529,9.315 -0.495,-0.051 -1.82,0.393 c -0.547,0.102 -8.53,2.271 -8.53,2.271 0.049,0 -0.987,1.377 -0.987,1.377 -1.03,1.48 -1.229,2.418 -0.933,3.304 2.119,3.157 5.62,3.056 10.398,2.169 l 1.184,-0.199 1.529,1.772 0.983,0.446 0.448,0.589 c -0.053,-0.093 0.937,1.036 0.937,1.036 l 1.281,0.739 c 1.575,0.448 3.744,0.152 6.357,-0.786 l 0.687,-0.297 1.236,0.496 3.695,1.281 0,0.343 c 0.442,0.098 1.036,0.248 1.036,0.248 2.363,-0.15 5.078,-2.321 6.85,-3.746 l 0.987,-0.786 1.77,0.832 1.534,0.594 3.892,-0.837 1.723,1.724 -0.146,-0.148 c 0.688,0.547 1.627,0.741 2.461,0.496 l 6.807,-3.349 1.478,0.833 0.495,0.347 c 1.623,0.244 3.695,0 5.566,-4.683 l 1.036,-2.518 2.222,1.58 c 0.738,0.542 1.624,0.69 2.364,0.44 0.051,0 3.397,-2.359 3.397,-2.359 l 1.384,-0.203 0.931,0.203 c 0.494,0.051 0.744,0.098 1.633,-0.989 2.119,-2.715 3.451,-5.519 4.091,-8.622 l 0.495,-2.765 5.66,2.765 c 0.052,0 12.724,3.544 12.724,3.544 0.343,0.051 4.533,1.031 4.63,1.086 0,-0.055 3.55,0 3.55,0 l 1.624,0.047 0.396,1.629 c 0.25,1.082 0.397,2.168 0.397,3.204 0,2.118 -0.491,4.188 -1.038,6.305 0,0.055 -1.429,9.025 -1.429,9.025 l 0.495,2.613 2.266,3.399 c 4.288,3.742 12.323,2.858 18.829,2.175 0.149,-0.051 5.816,-0.449 5.816,-0.449 0.443,0 5.767,1.823 5.767,1.823 l 0.689,0.248 0.74,0.487 0.499,0.739 c 1.573,1.285 4.283,1.434 6.9,1.582 0.094,0 3.053,0.194 3.053,0.194 l 1.133,1.138 c 1.725,3.945 5.323,6.063 8.875,7.931 0.047,0.055 3.451,1.921 3.451,1.921 -0.047,0 2.266,0.354 2.266,0.354 1.771,-0.6 2.465,-1.533 2.512,-2.564 l -0.791,-8.579 2.664,0.299 1.433,0.19 c 0.098,0 5.861,1.04 5.861,1.04 0.3,0.051 3.598,2.068 3.598,2.068 3.21,2.271 6.309,4.189 9.619,3.255 l 1.226,-0.347 1.235,1.476 c 4.879,5.273 15.97,2.91 22.231,0 l 1.379,-1.526 0.296,-0.935 0,-1.675 c -0.051,-0.049 -0.791,-1.184 -0.791,-1.184 l -8.478,-5.174 c -0.393,-0.203 -0.989,-0.542 -0.989,-0.542 l -5.269,-2.813 6.749,-1.279 c 5.175,-1.037 10.996,-2.171 14.244,-6.16 0.99,-1.235 1.383,-2.417 1.383,-3.603 0,-1.43 -0.541,-2.813 -1.18,-4.14 l 0.094,-0.102 c -0.787,-2.067 -1.726,-4.528 -1.726,-4.528 l -2.66,-7.298 0,-0.098 -0.689,-4.828 c 0,0.05 -0.592,-3.257 -0.592,-3.257 0,-0.346 -0.439,-11.189 -0.439,-11.189 l -0.055,-1.38 1.281,-0.641 c 6.562,-3.004 25.981,-7.395 31.204,-6.554 0.588,0.146 2.071,0.791 2.071,0.791 l 1.624,0.687 0.342,1.624 -1.476,7.446 c 0,-0.047 -0.692,2.907 -0.692,2.907 l -0.191,0.689 -1.979,1.084 -0.984,0.841 c 0,0.051 -2.858,2.956 -2.858,2.956 0.351,-0.098 -0.593,0.643 -0.593,0.643 l -0.588,0.494 -1.035,0.191 c -7.493,-0.14 -9.759,2.168 -12.668,6.067 -0.097,0.098 -3.695,4.283 -3.695,4.283 l -0.842,2.17 c -0.144,0.841 -0.346,1.775 -0.346,1.775 0,0 -0.344,1.776 -0.689,3.5 0.689,-0.638 1.43,-1.328 1.43,-1.328 0.692,0.741 1.775,1.034 2.709,0.69 0.643,-0.194 1.582,-0.838 1.582,-0.838 l 0.291,-0.201 0.694,-0.34 3.053,-0.84 c 0.396,-0.047 4.439,-1.087 4.439,-1.087 l 1.184,0.197 0.443,0.102 5.671,-2.465 0.346,-0.148 0.588,-0.146 c 4.584,-0.495 11.483,-3.848 12.618,-4.98 1.974,-1.87 2.164,-5.176 2.316,-7.789 0,-0.094 0.195,-2.263 0.195,-2.263 l 0.595,-6.019 c 0,0.098 0.833,-6.704 0.833,-6.704 0.348,-0.689 1.878,-2.955 1.878,-2.955 0.443,-0.495 0.443,-0.742 0.443,-0.742 0,-0.045 -0.249,-3.943 -0.249,-3.943 0,0.055 -0.144,-1.429 -0.144,-1.429 l -0.444,-2.558 c -3.793,-4.241 -9.463,-4.982 -14.938,-5.723 -0.147,0 -5.717,-0.935 -5.717,-0.935 -0.35,-0.101 -2.562,-0.841 -2.562,-0.841 l -6.113,-2.115 1.725,-3.995 c 2.024,-5.423 2.266,-11.581 0.643,-16.464 -0.051,-0.049 -0.545,-1.18 -0.545,-1.18 l -0.445,-1.827 -0.49,-5.569 c -0.047,-0.097 -0.588,-2.512 -0.588,-2.512 -0.055,-0.247 -1.043,-8.53 -1.043,-8.53 0,-0.247 0.152,-5.025 0.152,-5.025 0,-0.052 0.295,-6.803 0.295,-6.803 l 2.072,-0.051 c 5.323,0 18.435,-0.935 24.35,-10.003 0.047,-0.049 0.393,-0.789 0.393,-0.789 l 0.74,-1.676 2.415,0.099 c 5.914,1.525 8.918,-2.216 11.292,-6.556 0.044,-0.1 0.732,-1.281 0.732,-1.281 l 0.943,-0.594 1.227,-0.89 c 0.938,-1.326 0.984,-2.85 1.039,-4.186 l 0,-0.693 0.526,-1.421 c -0.013,0.016 -0.02,0.029 -0.032,0.041 l 0.047,-0.093 -0.015,0.052 c 1.265,-1.803 2.522,-3.53 1.938,-6.807 -0.396,-1.135 -0.938,-1.674 -1.678,-1.973 l -3.742,-1.429 -1.239,-0.146 -3.547,0.396 c -0.693,-0.053 -6.406,-2.418 -6.406,-2.418 l -0.545,-0.248 -0.49,-0.981 -0.989,-1.334 c -1.527,-1.083 -2.664,-1.133 -3.945,-1.083 l -0.736,0.093 -2.266,0.203 -12.473,-6.41 -0.098,-1.232 -0.147,-0.74 c 0,0.052 -1.776,-2.415 -1.776,-2.415 l -0.931,-0.395 c -0.055,-0.049 -3.897,-0.931 -3.897,-0.931 l -1.775,-2.765 c -1.625,-2.81 -3.502,-5.568 -7.197,-5.568 l -2.114,0.935 -1.09,-0.199 c -1.676,-0.691 -3.549,-1.279 -5.662,-1.083 l -1.383,0.592 -1.822,0.74 -1.53,-1.677 -0.449,-0.837 c -0.439,-0.641 -1.471,-0.693 -2.266,-0.592 l -1.184,0.196 -1.281,-2.021 -0.686,-0.841 -1.382,-0.047 -1.43,-0.493 -0.394,-0.148 -1.97,0.345 -3.699,2.364 -1.286,0.249 -5.315,-1.629 c -0.202,-0.093 -7.394,-2.069 -7.394,-2.069 l -1.281,0.249 c -2.813,1.382 -4.339,2.907 -5.425,4.288 l -2.072,2.464 -2.363,-4.583 c -0.051,-0.099 -0.845,-1.332 -0.845,-1.332 l -0.339,-0.787 -1.328,-1.723 c -0.055,-0.05 -1.975,-0.645 -1.975,-0.645 l -0.888,-0.837 c -0.047,-0.1 -0.25,-0.345 -0.889,-0.444 -0.046,0 -2.367,-0.196 -2.367,-0.196 l 1.09,-0.199 c 0,0 -0.447,-0.197 -0.545,-0.246 -0.44,0.152 -0.884,0.298 -0.884,0.298"
           id="SVGID_1_" /></defs><clipPath
         id="SVGID_2_"><use
           height="100%"
           width="100%"
           y="0"
           x="0"
           style="overflow:visible"
           id="use9"
           overflow="visible"
           xlink:href="#SVGID_1_" /></clipPath><linearGradient
         gradientTransform="matrix(264.17011,-92.781732,-92.781732,-264.17011,20127.306,83394.23)"
         y2="304.09961"
         x2="33.599899"
         y1="304.09961"
         x1="29.644501"
         gradientUnits="userSpaceOnUse"
         id="SVGID_3_"><stop
           id="stop12"
           style="stop-color:#916C37"
           offset="0" /><stop
           id="stop14"
           style="stop-color:#785929"
           offset="0.0332" /><stop
           id="stop16"
           style="stop-color:#785929"
           offset="0.0588" /><stop
           id="stop18"
           style="stop-color:#927237"
           offset="0.0814" /><stop
           id="stop20"
           style="stop-color:#C8A862"
           offset="0.1071" /><stop
           id="stop22"
           style="stop-color:#D1B574"
           offset="0.1128" /><stop
           id="stop24"
           style="stop-color:#E4D099"
           offset="0.126" /><stop
           id="stop26"
           style="stop-color:#F0E1B1"
           offset="0.1367" /><stop
           id="stop28"
           style="stop-color:#F5E7BA"
           offset="0.1433" /><stop
           id="stop30"
           style="stop-color:#F5E7BA"
           offset="0.1689" /><stop
           id="stop32"
           style="stop-color:#F3E5B7"
           offset="0.1828" /><stop
           id="stop34"
           style="stop-color:#F0DFAD"
           offset="0.1934" /><stop
           id="stop36"
           style="stop-color:#EAD59D"
           offset="0.2029" /><stop
           id="stop38"
           style="stop-color:#E8D299"
           offset="0.2051" /><stop
           id="stop40"
           style="stop-color:#906E32"
           offset="0.3228" /><stop
           id="stop42"
           style="stop-color:#FEF6BC"
           offset="0.4835" /><stop
           id="stop44"
           style="stop-color:#906E32"
           offset="0.5989" /><stop
           id="stop46"
           style="stop-color:#A2803C"
           offset="0.6758" /><stop
           id="stop48"
           style="stop-color:#D1B473"
           offset="0.8235" /><stop
           id="stop50"
           style="stop-color:#EEDBA6"
           offset="0.8537" /><stop
           id="stop52"
           style="stop-color:#FEF8DA"
           offset="0.8839" /><stop
           id="stop54"
           style="stop-color:#FEF8DA"
           offset="0.9291" /><stop
           id="stop56"
           style="stop-color:#ECDA9E"
           offset="0.9397" /><stop
           id="stop58"
           style="stop-color:#CDAD6B"
           offset="0.9548" /><stop
           id="stop60"
           style="stop-color:#826032"
           offset="0.9744" /><stop
           id="stop62"
           style="stop-color:#826032"
           offset="1" /></linearGradient><polygon
         style="fill:url(#SVGID_3_)"
         id="polygon64"
         points="113.561,318.635 14.054,35.313 336.888,-78.073 436.394,205.247 "
         clip-path="url(#SVGID_2_)" /></g><g
       transform="translate(0,-70)"
       id="g66"><defs
         id="defs68"><path
           inkscape:connector-curvature="0"
           d="m 217.685,284.22 c -0.444,0.345 -0.639,0.984 -0.639,2.021 l 0,18.041 c 0,1.628 0.194,2.664 0.545,3.155 0.39,0.54 1.083,0.841 2.114,0.841 2.271,0 4.144,-1.138 5.62,-3.403 1.526,-2.267 2.219,-5.223 2.219,-8.824 0,-3.743 -0.693,-6.701 -2.071,-8.918 -1.433,-2.22 -3.302,-3.356 -5.569,-3.356 -1.091,-0.002 -1.822,0.146 -2.219,0.443 m 105.978,-33.713 0.102,0 c 0.042,0 0.093,0.047 0.093,0.047 1.133,0.348 1.771,0.694 2.018,1.04 0.249,0.343 0.249,0.986 0,2.018 l -3.451,13.952 c -0.342,1.277 -0.639,2.064 -0.934,2.314 -0.344,0.244 -1.18,0.197 -2.516,-0.144 l -0.293,1.031 c 0.395,0.051 0.74,0.102 1.084,0.199 0.396,0.051 0.738,0.146 1.082,0.192 0.35,0.098 0.744,0.145 1.086,0.246 0.297,0.055 0.693,0.152 1.04,0.245 0.394,0.102 0.833,0.203 1.281,0.352 0.394,0.098 0.837,0.246 1.23,0.341 0.347,0.098 0.592,0.199 0.884,0.297 0.296,0.047 0.541,0.199 0.845,0.25 l 0.242,-0.989 -0.102,0 c -1.18,-0.39 -1.916,-0.687 -2.169,-1.031 -0.297,-0.301 -0.346,-0.989 -0.043,-2.026 0,-0.047 0,-0.098 0.043,-0.145 0.051,-0.051 0.051,-0.146 0.051,-0.146 0,-0.055 0.051,-0.102 0.051,-0.203 0.047,-0.046 0.047,-0.097 0.047,-0.144 l 3.302,-13.311 c 0.35,-1.332 0.646,-2.117 0.988,-2.367 0.297,-0.246 1.135,-0.195 2.509,0.102 l 0.253,-0.937 c -0.253,-0.051 -0.494,-0.097 -0.74,-0.147 -0.295,-0.053 -0.545,-0.146 -0.841,-0.201 -0.093,-0.043 -0.245,-0.043 -0.394,-0.094 -0.098,0 -0.245,-0.051 -0.389,-0.102 -0.398,-0.051 -0.791,-0.144 -1.188,-0.245 l -1.184,-0.297 c -0.39,-0.098 -0.833,-0.195 -1.227,-0.292 -0.447,-0.15 -0.892,-0.252 -1.281,-0.396 -0.203,-0.047 -0.447,-0.102 -0.646,-0.203 -0.194,-0.047 -0.443,-0.093 -0.639,-0.144 l -0.194,0.938 z m -140.876,-2.414 c -0.491,0.051 -0.985,0.098 -1.431,0.195 -0.489,0.046 -0.983,0.144 -1.427,0.245 -0.196,0.055 -0.395,0.102 -0.539,0.148 -0.203,0.055 -0.397,0.102 -0.596,0.148 -0.196,0.098 -0.393,0.148 -0.539,0.199 -0.199,0.046 -0.396,0.099 -0.592,0.196 -2.812,1.038 -4.831,2.758 -6.116,5.074 -1.229,2.368 -1.524,4.978 -0.884,7.887 0.739,3.157 2.221,5.475 4.536,7.048 2.315,1.582 5.023,2.169 8.18,1.633 0.1,0 0.25,-0.051 0.345,-0.051 0.15,0 0.247,-0.051 0.395,-0.098 0.097,0 0.197,0 0.296,-0.055 0.146,0 0.246,-0.047 0.392,-0.047 0.15,-0.051 0.349,-0.098 0.545,-0.148 0.197,-0.051 0.442,-0.098 0.641,-0.199 0.886,-0.245 1.728,-0.642 2.561,-1.082 0.837,-0.444 1.63,-0.984 2.319,-1.577 l 0.442,-1.771 -0.342,-0.102 c -0.543,0.595 -1.186,1.082 -1.924,1.53 -0.688,0.485 -1.478,0.888 -2.266,1.18 -0.197,0.047 -0.394,0.148 -0.643,0.197 -0.198,0.051 -0.444,0.148 -0.691,0.148 -0.096,0.047 -0.246,0.098 -0.345,0.098 -0.146,0 -0.296,0.051 -0.392,0.097 l -0.395,0 c -0.1,0.056 -0.249,0.056 -0.393,0.056 -2.666,0.245 -4.884,-0.447 -6.704,-2.071 -1.826,-1.629 -3.055,-3.7 -3.6,-6.258 -0.489,-2.075 -0.444,-4.094 0.197,-6.021 0.594,-1.968 1.973,-3.353 4.091,-4.238 0.15,-0.047 0.245,-0.093 0.396,-0.144 0.099,-0.049 0.243,-0.104 0.348,-0.104 0.1,-0.047 0.245,-0.098 0.343,-0.148 0.152,0 0.296,-0.043 0.397,-0.043 0.192,-0.051 0.441,-0.102 0.685,-0.148 0.25,-0.055 0.495,-0.055 0.691,-0.102 0.886,-0.055 1.776,-0.055 2.713,0.148 0.889,0.145 1.723,0.396 2.564,0.739 0.049,0.195 0.146,0.394 0.195,0.593 0.05,0.195 0.097,0.392 0.201,0.587 0.044,0.203 0.095,0.398 0.146,0.644 0.049,0.148 0.1,0.393 0.197,0.591 l 0.736,-0.198 c -0.095,-0.592 -0.144,-1.181 -0.193,-1.775 -0.1,-0.589 -0.1,-1.129 -0.1,-1.776 l 0,-0.536 0,-0.593 c -0.742,-0.098 -1.431,-0.152 -2.216,-0.152 -0.218,-0.01 -0.434,-0.019 -0.652,-0.019 -0.525,0.002 -1.048,0.037 -1.572,0.075 m 125.892,-0.642 c -1.434,0.44 -2.566,1.43 -3.404,2.958 -0.047,0.047 -0.047,0.098 -0.098,0.145 l 0,0.148 c -0.101,0.102 -0.193,0.301 -0.248,0.394 -0.051,0.152 -0.094,0.348 -0.148,0.447 -0.098,0.198 -0.148,0.339 -0.195,0.495 -0.05,0.195 -0.097,0.339 -0.097,0.487 l -0.055,0.055 0,0.098 c -0.144,0.832 -0.093,1.622 0.151,2.465 0.25,0.786 0.689,1.428 1.328,1.966 0.448,0.347 0.99,0.696 1.578,0.938 0.592,0.25 1.188,0.496 1.775,0.737 0.938,0.346 1.771,0.696 2.563,1.091 0.836,0.392 1.433,0.934 1.775,1.575 0.148,0.246 0.245,0.542 0.347,0.886 0.046,0.345 0.046,0.692 0.046,1.035 -0.046,0.102 -0.046,0.199 -0.046,0.297 0,0.1 0,0.15 -0.047,0.294 0,0.102 -0.055,0.199 -0.055,0.301 -0.047,0.094 -0.047,0.195 -0.097,0.297 -0.098,0.392 -0.297,0.785 -0.546,1.18 -0.194,0.343 -0.44,0.642 -0.635,0.887 -0.494,0.491 -1.087,0.835 -1.725,0.985 -0.694,0.194 -1.379,0.241 -2.071,0.194 -0.098,-0.051 -0.25,-0.051 -0.398,-0.051 -0.093,-0.042 -0.24,-0.042 -0.393,-0.093 l -0.148,0 c -0.043,0 -0.098,-0.051 -0.145,-0.051 -0.051,-0.047 -0.104,-0.047 -0.151,-0.098 l -0.144,0 c -0.203,-0.053 -0.394,-0.146 -0.646,-0.197 -0.195,-0.098 -0.44,-0.199 -0.639,-0.296 -0.397,-0.145 -0.787,-0.395 -1.129,-0.594 -0.352,-0.294 -0.643,-0.586 -0.846,-0.984 -0.151,-0.246 -0.191,-0.544 -0.241,-0.832 l 0,-0.942 c 0.05,-0.195 0.05,-0.445 0.09,-0.64 0.054,-0.195 0.104,-0.398 0.151,-0.587 l -1.032,-0.207 c -0.046,0.396 -0.147,0.794 -0.245,1.191 -0.051,0.393 -0.151,0.837 -0.249,1.227 -0.094,0.395 -0.195,0.841 -0.296,1.188 -0.094,0.392 -0.245,0.785 -0.347,1.226 0.494,0.301 1.04,0.596 1.632,0.841 0.643,0.297 1.234,0.496 1.869,0.644 0.203,0.096 0.396,0.146 0.549,0.193 0.191,0.051 0.39,0.051 0.584,0.098 0.102,0.051 0.199,0.051 0.301,0.102 0.101,0 0.193,0.046 0.291,0.046 1.632,0.199 3.26,0.102 4.833,-0.392 1.53,-0.495 2.808,-1.48 3.699,-3.003 0.094,-0.203 0.195,-0.398 0.297,-0.548 0.097,-0.246 0.14,-0.437 0.193,-0.644 0.098,-0.191 0.199,-0.34 0.25,-0.585 0.047,-0.201 0.093,-0.393 0.144,-0.596 l 0,-0.097 0,-0.098 c 0.151,-0.794 0.102,-1.578 -0.097,-2.363 -0.25,-0.743 -0.643,-1.434 -1.286,-1.974 -0.439,-0.395 -0.98,-0.69 -1.572,-0.94 -0.545,-0.244 -1.134,-0.485 -1.775,-0.739 l -0.051,0 c -0.051,-0.051 -0.051,-0.051 -0.094,-0.051 -0.795,-0.292 -1.628,-0.638 -2.371,-0.984 -0.787,-0.34 -1.328,-0.884 -1.776,-1.527 -0.144,-0.343 -0.288,-0.79 -0.394,-1.23 -0.098,-0.442 -0.098,-0.888 0,-1.336 0,-0.098 0.051,-0.242 0.105,-0.392 0.047,-0.094 0.047,-0.242 0.098,-0.344 0.144,-0.343 0.295,-0.64 0.486,-0.938 0.199,-0.242 0.347,-0.496 0.545,-0.737 0.44,-0.442 1.04,-0.79 1.822,-0.985 0.74,-0.152 1.484,-0.198 2.271,-0.055 l 0.102,0 0.042,0 c 0.102,0.055 0.199,0.055 0.301,0.055 0.098,0.047 0.145,0.102 0.241,0.102 0.546,0.148 1.09,0.441 1.535,0.731 0.485,0.394 0.836,0.792 1.078,1.234 0.102,0.25 0.152,0.495 0.152,0.788 0,0.298 0.051,0.595 0,0.892 0,0.245 -0.051,0.493 -0.051,0.688 -0.051,0.195 -0.102,0.398 -0.102,0.589 l 0.941,0.203 c 0.098,-0.347 0.191,-0.741 0.293,-1.086 0.051,-0.394 0.148,-0.745 0.245,-1.084 0.148,-0.396 0.245,-0.692 0.347,-1.087 0.148,-0.345 0.245,-0.688 0.393,-1.035 -0.494,-0.392 -1.031,-0.685 -1.623,-0.989 -0.596,-0.288 -1.188,-0.54 -1.826,-0.734 -0.246,-0.098 -0.495,-0.145 -0.74,-0.246 -0.292,-0.051 -0.537,-0.098 -0.786,-0.148 -0.632,-0.128 -1.266,-0.19 -1.894,-0.19 -0.839,-0.003 -1.672,0.114 -2.489,0.336 m -107.262,1.722 4.146,7.298 -6.213,0.888 2.067,-8.186 z m 0.149,-4.335 -0.048,0 c -0.144,0 -0.197,0.047 -0.294,0.098 -0.052,0.051 -0.099,0.102 -0.152,0.148 l -4.582,17.943 c 0,0.098 -0.048,0.194 -0.048,0.245 -0.049,0.098 -0.049,0.152 -0.049,0.25 -0.051,0.094 -0.099,0.244 -0.099,0.392 -0.051,0.094 -0.097,0.246 -0.097,0.391 -0.199,0.694 -0.396,1.332 -0.694,1.927 -0.296,0.542 -0.837,0.936 -1.625,1.135 l 0.147,1.036 c 0.444,-0.102 0.938,-0.199 1.379,-0.301 0.494,-0.094 0.938,-0.148 1.384,-0.195 0.292,-0.055 0.588,-0.102 0.933,-0.152 0.296,-0.042 0.641,-0.093 0.937,-0.093 0.249,-0.051 0.494,-0.051 0.79,-0.098 0.246,-0.051 0.493,-0.051 0.738,-0.051 l -0.15,-1.036 c -0.785,0.098 -1.378,0.098 -1.77,0.047 -0.396,-0.047 -0.645,-0.241 -0.645,-0.587 -0.048,-0.152 -0.048,-0.343 0,-0.644 0.053,-0.247 0.1,-0.587 0.197,-0.891 l 1.281,-5.564 7.249,-1.033 2.714,5.172 c 0.095,0.296 0.245,0.546 0.344,0.79 0.094,0.241 0.146,0.444 0.146,0.589 0.049,0.397 -0.1,0.644 -0.446,0.789 -0.391,0.102 -0.983,0.199 -1.824,0.348 l 0.147,0.984 c 0.203,-0.051 0.396,-0.097 0.592,-0.097 0.249,-0.047 0.444,-0.098 0.645,-0.148 0.44,-0.053 0.886,-0.15 1.281,-0.201 0.441,-0.043 0.837,-0.145 1.279,-0.19 0.294,-0.056 0.594,-0.102 0.938,-0.156 0.343,-0.047 0.639,-0.047 0.983,-0.09 0.296,-0.055 0.639,-0.055 0.937,-0.102 0.343,-0.051 0.639,-0.051 0.935,-0.102 l -0.094,-0.988 c -0.741,0 -1.283,-0.047 -1.581,-0.141 -0.296,-0.148 -0.541,-0.444 -0.837,-0.79 -0.047,-0.148 -0.199,-0.296 -0.296,-0.495 -0.096,-0.195 -0.246,-0.44 -0.345,-0.688 l -9.856,-17.353 c -0.051,0 -0.104,-0.051 -0.148,-0.051 -0.052,-0.047 -0.098,-0.047 -0.201,-0.047 l -0.095,0 z m 84.982,10.65 4.085,-7.345 2.076,8.132 -6.161,-0.787 z m 4.973,-11.487 c -0.051,0.051 -0.093,0.051 -0.19,0.102 l -9.022,16.163 c -0.047,0.051 -0.047,0.145 -0.102,0.195 -0.051,0.051 -0.098,0.152 -0.148,0.203 -0.047,0.144 -0.097,0.241 -0.194,0.39 -0.051,0.102 -0.105,0.201 -0.198,0.345 -0.293,0.644 -0.686,1.182 -1.134,1.676 -0.394,0.448 -1.035,0.692 -1.873,0.692 l -0.097,1.033 c 0.49,0 0.935,0 1.425,0.051 0.443,0.047 0.938,0.1 1.386,0.148 0.293,0.047 0.589,0.1 0.889,0.146 0.342,0 0.635,0.051 0.931,0.148 0.296,0.051 0.541,0.051 0.79,0.098 0.241,0.051 0.494,0.102 0.736,0.148 l 0.105,-1.036 c -0.74,-0.101 -1.285,-0.241 -1.679,-0.39 -0.39,-0.152 -0.542,-0.396 -0.495,-0.743 0,-0.148 0.051,-0.394 0.195,-0.644 0.102,-0.239 0.254,-0.54 0.396,-0.832 l 2.66,-5.028 7.294,0.938 1.285,5.667 c 0.051,0.295 0.051,0.591 0.098,0.833 0.051,0.305 0.051,0.495 0,0.646 -0.047,0.394 -0.246,0.589 -0.643,0.589 -0.391,0 -0.985,0 -1.823,-0.098 l -0.147,0.984 c 0.249,0 0.443,0 0.643,0.051 0.198,0.047 0.443,0.047 0.639,0.047 0.443,0.051 0.892,0.102 1.285,0.148 0.439,0.051 0.833,0.102 1.277,0.148 0.299,0 0.643,0.055 0.935,0.102 0.347,0.051 0.642,0.098 0.989,0.144 0.346,0.051 0.639,0.102 0.988,0.152 0.293,0.051 0.588,0.098 0.936,0.195 l 0.101,-1.033 c -0.743,-0.201 -1.185,-0.35 -1.429,-0.54 -0.301,-0.246 -0.494,-0.547 -0.643,-0.989 -0.051,-0.145 -0.098,-0.348 -0.152,-0.546 -0.094,-0.242 -0.148,-0.487 -0.191,-0.782 l -5.081,-19.326 c -0.047,0 -0.047,-0.047 -0.098,-0.094 -0.051,-0.051 -0.097,-0.051 -0.198,-0.051 0,-0.051 -0.051,-0.051 -0.051,-0.051 -0.047,-0.051 -0.094,-0.051 -0.094,-0.051 -0.099,10e-4 -0.204,10e-4 -0.301,0.052 m -69.25,-1.033 c -0.25,0.051 -0.545,0.051 -0.791,0.094 -0.098,0 -0.198,0 -0.292,0.055 -0.102,0 -0.152,0 -0.249,0.042 -0.495,0 -0.935,0.051 -1.386,0.102 -0.39,0.047 -0.833,0.148 -1.277,0.148 -0.444,0.047 -0.888,0.102 -1.328,0.102 -0.448,0.043 -0.841,0.043 -1.332,0.043 -0.198,0.055 -0.393,0.055 -0.643,0.055 -0.194,0 -0.443,0.047 -0.642,0.047 l 0.097,0.934 0.296,0 0.249,0 c 1.134,0 1.823,0.156 2.072,0.449 0.245,0.245 0.443,1.082 0.545,2.465 l 1.223,14.244 c 0.102,0.644 0.055,1.184 -0.14,1.624 -0.148,0.396 -0.545,0.743 -1.285,1.032 l 0.05,0.891 c 0.791,-0.098 1.577,-0.194 2.317,-0.294 0.787,-0.102 1.527,-0.148 2.266,-0.199 0.394,-0.047 0.791,-0.094 1.134,-0.094 0.393,-0.055 0.79,-0.097 1.187,-0.097 0.242,-0.051 0.491,-0.051 0.733,-0.106 0.303,0 0.545,0 0.794,-0.046 0.545,0 1.079,-0.055 1.62,-0.055 0.499,-0.047 1.036,-0.098 1.53,-0.141 0.3,0 0.596,-0.051 0.892,-0.102 0.296,0 0.592,-0.047 0.884,-0.098 0.346,-0.055 0.642,-0.102 0.935,-0.148 0.249,-0.051 0.549,-0.097 0.837,-0.147 -0.046,-0.892 -0.046,-1.821 -0.046,-2.713 0.046,-0.888 0.046,-1.823 0.046,-2.707 l -0.93,0.043 c 0,0.301 -0.051,0.548 -0.051,0.841 0,0.249 -0.047,0.495 -0.102,0.69 -0.097,1.234 -0.296,1.974 -0.74,2.313 -0.389,0.347 -1.379,0.548 -3.006,0.696 l -5.763,0.542 -1.433,-16.317 0,-0.147 c 0,-0.047 -0.047,-0.102 -0.047,-0.145 l 0,-0.105 c 0,-0.047 -0.05,-0.096 -0.05,-0.188 l 0,-0.098 c -0.097,-1.04 0,-1.727 0.346,-2.031 0.296,-0.243 1.083,-0.489 2.364,-0.586 l -0.098,-0.985 c -0.244,0.044 -0.544,0.044 -0.786,0.097 m 37.513,-0.345 c 0.047,0 0.093,0.046 0.14,0.046 l 0.151,0 c 1.087,0.098 1.726,0.299 1.92,0.489 0.203,0.203 0.25,0.695 0.203,1.586 l -0.993,14.735 c -0.093,1.328 -0.292,2.114 -0.437,2.415 -0.245,0.292 -0.845,0.394 -1.928,0.394 l -0.24,0 -0.3,0 -0.054,1.082 1.039,0 c 0.347,0.055 0.689,0.055 1.087,0.102 0.346,0 0.689,0 1.082,0.051 0.347,0.047 0.689,0.047 1.035,0.047 0.398,0.047 0.791,0.098 1.185,0.148 0.394,0 0.786,0.049 1.231,0.049 0.295,0.051 0.595,0.097 0.887,0.097 0.293,0.051 0.592,0.051 0.889,0.098 l 0.101,-1.086 c -1.429,-0.043 -2.271,-0.246 -2.519,-0.587 -0.195,-0.297 -0.293,-1.18 -0.195,-2.563 l 0,-0.051 0,-0.051 0.888,-12.914 c 0.055,-0.54 0.097,-1.086 0.144,-1.626 0.102,-0.496 0.152,-1.032 0.203,-1.531 0.242,-0.043 0.49,-0.098 0.783,-0.098 0.253,-0.047 0.549,-0.047 0.84,-0.094 l 0.546,0 0.49,0 c 1.137,0.094 2.17,0.441 3.057,1.078 0.893,0.598 1.328,1.633 1.285,3.113 l -0.051,0.339 c -0.101,1.729 -0.789,2.912 -2.07,3.505 -1.286,0.587 -2.664,0.837 -4.241,0.692 l -0.047,0.538 c 0.397,0.345 0.686,0.692 0.98,1.137 0.301,0.389 0.546,0.782 0.796,1.23 0.097,0.098 0.147,0.242 0.241,0.393 0.05,0.102 0.151,0.249 0.245,0.394 l 3.057,4.778 c 0.199,0.347 0.443,0.696 0.643,0.988 0.194,0.293 0.396,0.64 0.588,0.94 0.051,0.093 0.051,0.142 0.152,0.239 0,0.055 0.051,0.105 0.098,0.203 0.146,0.246 0.295,0.495 0.494,0.788 0.144,0.243 0.292,0.493 0.494,0.739 l 0.486,0 0.495,0 0.448,0 c 0.145,0 0.295,0 0.49,0.046 0.343,0 0.643,0.056 0.984,0.106 0.344,0 0.689,0.097 0.986,0.144 l 0.051,-1.035 c -0.592,-0.051 -1.088,-0.293 -1.43,-0.741 -0.393,-0.396 -0.736,-0.888 -1.039,-1.328 -0.094,-0.199 -0.191,-0.345 -0.293,-0.493 -0.098,-0.148 -0.144,-0.301 -0.249,-0.491 l -0.042,-0.051 c 0,0 -0.055,-0.055 -0.055,-0.102 l -4.88,-7.54 c 1.036,-0.245 2.021,-0.692 2.96,-1.188 0.884,-0.536 1.623,-1.277 2.122,-2.262 0.144,-0.35 0.292,-0.692 0.394,-1.091 0.098,-0.339 0.193,-0.734 0.193,-1.129 0.056,-0.098 0.056,-0.199 0.056,-0.296 l 0,-0.346 c -0.056,-0.491 -0.151,-1.037 -0.351,-1.522 -0.148,-0.551 -0.397,-0.989 -0.74,-1.336 -0.541,-0.496 -1.184,-0.835 -2.018,-1.087 -0.789,-0.19 -1.627,-0.39 -2.565,-0.487 -0.148,0 -0.245,0 -0.394,-0.055 l -0.397,0 -0.295,0 c -0.095,-0.047 -0.246,-0.047 -0.293,-0.047 -0.245,0 -0.541,-0.051 -0.79,-0.051 l -0.736,0 c -0.351,0 -0.696,0 -0.989,-0.051 -0.292,0 -0.592,0 -0.887,-0.047 l -0.344,0 -0.443,0 -0.444,0 -0.343,0 c -0.299,-0.051 -0.596,-0.051 -0.888,-0.097 -0.245,-0.051 -0.542,-0.051 -0.841,-0.1 -0.297,-0.047 -0.592,-0.102 -0.885,-0.102 -0.248,-0.047 -0.541,-0.047 -0.841,-0.094 l -0.092,1.041 z m -15.187,3.204 3.204,7.784 -6.261,0.102 3.057,-7.886 z m 0.598,-4.291 c -0.104,0 -0.206,0.051 -0.252,0.051 -0.098,0.047 -0.148,0.094 -0.195,0.148 l -6.706,17.253 c -0.054,0.098 -0.054,0.141 -0.096,0.242 -0.051,0.047 -0.051,0.147 -0.097,0.194 -0.051,0.152 -0.102,0.25 -0.152,0.398 -0.051,0.098 -0.098,0.247 -0.145,0.396 -0.249,0.687 -0.545,1.277 -0.891,1.772 -0.347,0.545 -0.931,0.841 -1.725,0.985 l 0,1.031 c 0.444,-0.047 0.938,-0.094 1.378,-0.145 0.499,0 0.939,-0.046 1.434,-0.046 l 0.887,0 0.99,0 0.786,0 c 0.245,0.046 0.491,0.046 0.735,0.097 l -0.05,-1.039 c -0.739,-0.043 -1.327,-0.094 -1.726,-0.195 -0.396,-0.1 -0.588,-0.345 -0.588,-0.688 0,-0.151 0,-0.343 0.098,-0.593 0.094,-0.29 0.199,-0.591 0.3,-0.938 l 1.916,-5.318 7.345,-0.098 2.071,5.416 c 0.051,0.3 0.148,0.593 0.199,0.843 0.098,0.243 0.098,0.442 0.098,0.642 0.046,0.343 -0.148,0.591 -0.543,0.684 -0.393,0.051 -0.984,0.098 -1.825,0.098 l 0,1.04 c 0.206,-0.049 0.448,-0.049 0.642,-0.049 0.199,0 0.448,0 0.643,-0.051 0.44,0 0.889,-0.051 1.281,-0.051 0.448,-0.047 0.838,-0.047 1.281,-0.047 l 0.936,0 0.988,0 0.981,0 c 0.354,0 0.643,0 0.938,0.047 l 0,-1.036 c -0.74,-0.044 -1.227,-0.14 -1.526,-0.347 -0.249,-0.145 -0.495,-0.437 -0.739,-0.835 -0.047,-0.144 -0.148,-0.345 -0.199,-0.544 -0.098,-0.241 -0.199,-0.444 -0.292,-0.737 l -7.741,-18.437 c 0,0 -0.047,-0.047 -0.098,-0.047 -0.051,-0.047 -0.098,-0.047 -0.195,-0.047 0,-0.051 -0.054,-0.051 -0.108,-0.051 l -0.038,0 z m -91.538,22.378 c 0,0 -3.055,-6.7 -3.995,-8.725 69.603,-23.759 131.754,-23.708 201.107,0.096 -1.082,2.318 -10.4,22.575 -11.188,24.258 -60.086,-16.516 -118.495,-16.418 -178.485,0.389 -0.784,-1.725 -7.439,-16.018 -7.439,-16.018 m -6.209,-10.798 -1.378,0.495 5.224,11.388 8.378,18.088 1.083,-0.344 c 60.232,-17.106 118.839,-17.204 179.222,-0.39 l 1.087,0.288 13.356,-28.929 -1.383,-0.448 c -35.562,-12.368 -69.214,-18.555 -102.902,-18.555 -33.557,0.001 -67.147,6.137 -102.687,18.407 m 115.092,37.707 1.134,-0.098 c 0.343,0 0.495,0.051 0.589,0.148 0.1,0.102 0.146,0.245 0.146,0.495 0,0.444 -0.24,0.786 -0.735,0.938 -0.198,0.047 -0.394,0.098 -0.44,0.098 -0.105,0.094 -0.299,0.148 -0.498,0.301 -0.195,0.141 -0.49,0.536 -0.787,1.125 -0.346,0.548 -0.743,1.535 -1.23,2.909 l -4.688,12.819 c -0.089,0.343 -0.292,0.591 -0.482,0.734 -0.249,0.152 -0.495,0.246 -0.892,0.246 -0.351,0 -0.643,-0.094 -0.79,-0.19 -0.199,-0.152 -0.344,-0.447 -0.491,-0.841 l -5.128,-13.952 0,-0.142 c -0.639,-1.584 -1.185,-2.519 -1.772,-2.814 l -0.245,-0.102 c -0.055,-0.047 -0.152,-0.094 -0.395,-0.145 l -0.108,0 c -0.53,-0.144 -0.833,-0.44 -0.833,-0.887 0,-0.246 0.051,-0.395 0.198,-0.538 0.141,-0.152 0.296,-0.203 0.588,-0.203 l 1.281,0.098 3.112,0.105 3.104,-0.105 0.984,0 c 0.098,-0.047 0.195,-0.047 0.297,-0.098 0.291,0 0.494,0.051 0.595,0.148 0.094,0.102 0.141,0.245 0.141,0.495 0,0.245 -0.094,0.491 -0.194,0.591 -0.094,0.145 -0.44,0.297 -0.935,0.394 -0.542,0.098 -0.787,0.352 -0.787,0.841 0,0.145 0.144,0.636 0.39,1.375 l 0.443,1.379 2.173,6.856 c 0,0.096 0.051,0.195 0.051,0.246 0.094,0.102 0.141,0.144 0.246,0.144 0.047,-0.042 0.097,-0.093 0.147,-0.093 0.047,-0.102 0.047,-0.201 0.098,-0.344 l 2.118,-6.463 c 0,-0.094 0.098,-0.292 0.195,-0.64 0.051,-0.29 0.147,-0.638 0.198,-0.934 0.054,-0.297 0.101,-0.595 0.101,-0.892 0,-0.636 -0.396,-1.125 -1.19,-1.332 -0.834,-0.241 -1.228,-0.585 -1.228,-1.031 0,-0.246 0.047,-0.441 0.203,-0.593 0.093,-0.098 0.339,-0.148 0.686,-0.148 l 0.884,0.098 1.927,0.105 1.819,-0.103 z m -27.207,3.653 c 0,-0.248 0.047,-0.442 0.195,-0.595 0.101,-0.145 0.346,-0.293 0.739,-0.394 0.445,-0.098 0.639,-0.199 0.74,-0.199 0.102,-0.047 0.296,-0.094 0.494,-0.191 0.246,-0.051 0.689,-0.251 1.379,-0.544 0.643,-0.343 1.383,-0.837 2.316,-1.527 0.838,-0.738 1.332,-1.086 1.43,-1.137 0.152,0 0.246,0.051 0.293,0.25 0.054,0.148 0.104,0.241 0.104,0.343 l 0,0.638 0,14.688 c 0,0.449 0,0.743 0.047,0.938 0,0.199 0.05,0.394 0.147,0.644 0.098,0.297 0.249,0.493 0.541,0.642 0.246,0.094 0.546,0.195 0.942,0.293 l 0.094,-0.391 c 0.4,0.043 0.689,0.141 0.838,0.293 0.147,0.199 0.201,0.448 0.201,0.79 0,0.292 -0.054,0.542 -0.155,0.69 -0.093,0.144 -0.292,0.194 -0.588,0.194 l -1.429,-0.148 -2.566,-0.093 -3.843,0.093 -1.578,0.148 c -0.194,0 -0.342,-0.051 -0.495,-0.148 -0.093,-0.194 -0.144,-0.394 -0.144,-0.589 0,-0.201 0.051,-0.442 0.195,-0.544 0.102,-0.152 0.397,-0.241 0.842,-0.296 l 0.49,-0.098 0.249,-0.102 c 0.343,-0.148 0.538,-0.344 0.689,-0.638 0.098,-0.246 0.195,-0.792 0.195,-1.68 l 0,-8.228 c 0,-0.741 -0.051,-1.285 -0.145,-1.53 -0.102,-0.246 -0.249,-0.445 -0.443,-0.592 l -0.346,-0.147 c -0.051,0 -0.148,-0.047 -0.246,-0.047 -0.051,0 -0.203,0 -0.297,-0.051 l -0.097,0 c -0.544,-0.096 -0.788,-0.342 -0.788,-0.735 m 28.684,0 c 0,-0.248 0.051,-0.442 0.202,-0.595 0.098,-0.145 0.343,-0.293 0.791,-0.394 0.39,-0.098 0.639,-0.199 0.731,-0.199 0.051,-0.047 0.25,-0.094 0.495,-0.191 0.245,-0.051 0.739,-0.251 1.383,-0.544 0.634,-0.343 1.374,-0.837 2.262,-1.527 0.888,-0.738 1.387,-1.086 1.43,-1.137 0.203,0 0.299,0.051 0.346,0.25 0.047,0.148 0.047,0.241 0.047,0.343 0.055,0.15 0.055,0.295 0.055,0.638 l 0,14.688 c 0,0.449 0,0.743 0.047,0.938 0,0.199 0.051,0.394 0.105,0.644 0.094,0.297 0.288,0.493 0.584,0.642 0.199,0.094 0.545,0.195 0.938,0.293 l 0.101,-0.391 c 0.441,0.043 0.686,0.141 0.838,0.293 0.145,0.199 0.199,0.448 0.199,0.79 0,0.292 -0.055,0.542 -0.148,0.69 -0.102,0.144 -0.301,0.194 -0.646,0.194 l -1.375,-0.148 -2.563,-0.093 -3.897,0.093 -1.578,0.148 c -0.193,0 -0.346,-0.051 -0.443,-0.148 -0.098,-0.194 -0.194,-0.394 -0.194,-0.589 0,-0.201 0.097,-0.442 0.194,-0.544 0.148,-0.152 0.443,-0.241 0.889,-0.296 l 0.443,-0.098 0.249,-0.102 c 0.343,-0.148 0.585,-0.344 0.686,-0.638 0.152,-0.246 0.198,-0.792 0.198,-1.68 l 0,-8.228 c 0,-0.741 -0.046,-1.285 -0.093,-1.53 -0.105,-0.246 -0.249,-0.445 -0.499,-0.592 l -0.346,-0.147 c -0.047,0 -0.094,-0.047 -0.195,-0.047 -0.101,0 -0.199,0 -0.296,-0.051 l -0.097,0 c -0.597,-0.096 -0.843,-0.342 -0.843,-0.735 m 10.946,15.277 c -0.102,-0.194 -0.152,-0.343 -0.152,-0.589 0,-0.298 0.051,-0.442 0.152,-0.544 0.047,-0.098 0.191,-0.194 0.342,-0.241 0.152,-0.055 0.297,-0.055 0.546,-0.055 0.144,0 0.292,0 0.394,-0.047 0.098,-0.051 0.245,-0.098 0.494,-0.203 0.242,-0.141 0.444,-0.342 0.537,-0.638 0.148,-0.297 0.199,-0.835 0.199,-1.629 l 0,-8.871 c 0,-0.786 0,-1.332 -0.098,-1.571 -0.102,-0.25 -0.245,-0.449 -0.447,-0.546 -0.191,-0.152 -0.395,-0.25 -0.686,-0.25 -0.25,-0.047 -0.49,-0.094 -0.787,-0.191 -0.248,-0.053 -0.396,-0.251 -0.396,-0.642 0,-0.448 0.244,-0.743 0.79,-0.891 0.491,-0.141 0.786,-0.195 0.888,-0.246 0.145,-0.047 0.293,-0.102 0.537,-0.195 0.199,-0.051 0.348,-0.098 0.395,-0.147 0.051,0 0.35,-0.152 0.934,-0.396 0.55,-0.292 1.188,-0.788 1.877,-1.527 0.74,-0.736 1.185,-1.078 1.277,-1.078 0.152,0 0.3,0.047 0.351,0.24 0.047,0.152 0.098,0.444 0.098,0.885 l 0,1.877 c 0,0.241 0,0.343 0.055,0.394 0,0.102 0.047,0.195 0.14,0.195 l 0.102,-0.094 c 0.101,0 0.147,-0.047 0.147,-0.102 l 0.394,-0.394 c 0.597,-0.739 1.332,-1.281 2.271,-1.725 0.936,-0.394 1.775,-0.644 2.664,-0.644 1.818,0 3.2,0.491 4.186,1.578 0.938,1.031 1.429,2.566 1.429,4.536 l 0,9.805 c 0,0.743 0.048,1.281 0.098,1.582 0.102,0.297 0.301,0.493 0.542,0.587 0.198,0.148 0.548,0.25 0.989,0.348 0.396,0 0.689,0.102 0.836,0.245 0.148,0.105 0.199,0.297 0.199,0.595 0,0.246 -0.051,0.395 -0.148,0.543 -0.146,0.144 -0.248,0.194 -0.396,0.194 l -1.479,-0.148 -3.299,-0.093 -3.053,0.093 -1.434,0.148 c -0.151,0 -0.346,-0.051 -0.494,-0.148 -0.102,-0.194 -0.145,-0.343 -0.145,-0.589 0,-0.442 0.293,-0.738 0.932,-0.84 0.151,0 0.248,-0.047 0.393,-0.047 0.105,-0.051 0.25,-0.098 0.448,-0.203 0.194,-0.098 0.347,-0.191 0.397,-0.438 0.094,-0.199 0.144,-0.445 0.19,-0.69 0.055,-0.25 0.055,-0.642 0.055,-1.036 l 0,-8.329 c 0,-1.577 -0.202,-2.761 -0.643,-3.547 -0.397,-0.839 -1.032,-1.188 -1.874,-1.188 -0.988,0 -1.725,0.349 -2.168,1.137 -0.439,0.739 -0.693,2.067 -0.693,3.848 l 0,8.028 c 0,0.79 0.051,1.332 0.102,1.578 0.097,0.25 0.245,0.497 0.443,0.638 l 0.25,0.152 c 0.042,0.051 0.24,0.051 0.49,0.098 0.3,0.055 0.49,0.144 0.588,0.245 0.105,0.152 0.148,0.394 0.148,0.595 0,0.246 0,0.441 -0.094,0.589 -0.055,0.098 -0.25,0.148 -0.494,0.148 l -1.235,0 -2.854,0.051 -3.259,-0.051 -1.473,0 c -0.156,-10e-4 -0.35,-0.051 -0.498,-0.149 m -66.445,-24.841 c -0.1,-0.102 -0.146,-0.301 -0.146,-0.493 0,-0.593 1.036,-1.134 3.105,-1.629 2.068,-0.491 4.58,-0.739 7.488,-0.739 4.436,0 8.034,1.283 10.65,3.846 2.71,2.566 4.042,6.017 4.042,10.305 0,4.039 -1.333,7.392 -3.996,10.009 -2.609,2.563 -6.013,3.844 -10.203,3.844 -1.036,0 -2.118,0 -3.302,-0.152 l -2.514,-0.241 c -0.839,0 -1.727,0.093 -2.613,0.19 l -1.577,0.102 c -0.247,0 -0.441,-0.051 -0.592,-0.199 -0.146,-0.194 -0.245,-0.394 -0.245,-0.64 0,-0.392 0.396,-0.688 1.182,-0.836 l 0.098,0 c 0.59,-0.152 0.938,-0.344 1.188,-0.591 0.193,-0.297 0.292,-0.788 0.292,-1.477 l 0,-19.572 c 0,-0.491 -0.099,-0.834 -0.292,-1.137 -0.25,-0.297 -0.547,-0.394 -0.943,-0.394 l -1.328,0 c -0.096,-10e-4 -0.195,-0.094 -0.294,-0.196 m 29.766,2.461 c -0.588,-0.638 -0.834,-1.379 -0.834,-2.313 0,-0.938 0.246,-1.676 0.834,-2.317 0.596,-0.642 1.34,-0.988 2.174,-0.988 0.84,0 1.576,0.296 2.168,0.941 0.639,0.638 0.932,1.426 0.932,2.364 0,0.887 -0.293,1.675 -0.885,2.266 -0.588,0.69 -1.328,0.985 -2.215,0.985 -0.787,0.001 -1.523,-0.294 -2.174,-0.938 m 28.742,0 c -0.596,-0.638 -0.888,-1.379 -0.888,-2.313 0,-0.938 0.292,-1.676 0.888,-2.317 0.593,-0.642 1.328,-0.988 2.169,-0.988 0.834,0 1.523,0.296 2.166,0.941 0.596,0.638 0.941,1.426 0.941,2.364 0,0.887 -0.346,1.675 -0.891,2.266 -0.593,0.69 -1.328,0.985 -2.217,0.985 -0.789,0.001 -1.524,-0.294 -2.168,-0.938 m -124.407,-35.14 c 37.259,-13.853 73.438,-20.163 108.235,-20.163 37.267,0 73.05,7.247 106.964,20.209 -4.237,9.07 -13.357,28.984 -15.425,33.272 -33.373,-9.023 -61.32,-13.356 -89.562,-13.356 -29.229,0 -58.754,4.633 -94.935,13.507 -4.733,-10.4 -11.68,-25.726 -15.277,-33.469 m -0.89,-0.743 -0.541,0.2 0.245,0.496 c 3.6,7.688 10.844,23.657 15.725,34.303 l 0.146,0.391 0.444,-0.094 c 11.83,-2.909 22.868,-5.324 33.521,-7.298 2.315,7.149 7.044,42.142 7.044,42.142 20.158,-3.543 35.641,-5.767 53.974,-5.767 19.864,0 31.991,2.024 53.528,6.41 0,0 7.84,-34.748 10.056,-42.042 8.527,1.819 17.353,3.891 26.67,6.406 l 0.391,0.098 0.197,-0.347 c 1.676,-3.396 11.585,-25.085 15.873,-34.155 l 0.199,-0.492 -0.495,-0.198 c -34.21,-13.162 -70.242,-20.511 -107.852,-20.511 -35.093,0 -71.566,6.415 -109.125,20.458 M 388.075,64.437 c -0.046,1.279 -0.39,2.414 -0.988,3.401 -0.541,1.034 -1.379,1.92 -2.465,2.561 -1.033,0.688 -2.213,1.036 -3.545,1.186 l 0,6.011 c 1.62,-0.294 3.4,-0.888 5.273,-1.871 l 0,42.588 8.085,0 0,-53.876 -6.36,0 z m -384.25,-0.693 0,53.873 7.195,0 0,-24.889 6.509,0 0,-5.029 -6.509,0 0,-19.074 7.496,0 0,-4.881 -14.691,0 z m 54.763,0 0,24.696 -4.486,-24.696 -7.196,0 0,53.873 7.196,0 0,-22.08 4.486,22.08 7.146,0 0,-53.873 -7.146,0 z m 20.902,4.881 0.983,0 c 1.573,0 2.317,0.937 2.317,2.759 l 0,38.351 c 0,0.981 -0.196,1.675 -0.639,2.22 -0.448,0.535 -0.989,0.783 -1.678,0.783 l -0.983,0 0,-44.113 z m -7.2,-4.881 0,53.873 11.088,0 c 4.393,0 6.604,-2.463 6.604,-7.441 l 0,-39.037 c 0,-3.108 -0.588,-5.125 -1.869,-6.015 -1.233,-0.886 -2.759,-1.38 -4.585,-1.38 l -11.238,0 z m 33.072,6.509 0.495,0 1.727,27.504 -4.092,0 1.87,-27.504 z m -4.979,-6.509 -3.201,32.882 -2.023,20.991 6.902,0 1.081,-14.837 4.979,0 1.135,14.837 7.097,0 -3.055,-32.677 -2.07,-21.196 -10.845,0 z m 19.373,0 0,4.881 5.421,0 0,48.992 7.245,0 0,-48.992 5.471,0 0,-4.881 -18.137,0 z m 291.237,48.801 0,-17.351 c 0,-0.448 0.197,-0.843 0.494,-1.186 0.296,-0.343 0.74,-0.543 1.332,-0.543 1.233,0 1.872,0.594 1.872,1.729 l 0,17.351 c 0,1.182 -0.639,1.822 -1.872,1.822 -1.183,0 -1.826,-0.64 -1.826,-1.822 m 0.494,-24.599 c -0.297,-0.343 -0.494,-0.742 -0.494,-1.235 l 0,-16.458 c 0,-0.446 0.197,-0.89 0.549,-1.283 0.342,-0.396 0.735,-0.543 1.184,-0.543 0.49,0 0.931,0.148 1.327,0.49 0.444,0.396 0.639,0.841 0.639,1.336 l 0,16.458 c 0,0.547 -0.194,0.987 -0.494,1.289 -0.343,0.339 -0.833,0.54 -1.378,0.54 -0.592,0 -1.037,-0.201 -1.333,-0.594 m -1.179,-24.349 c -3.011,0 -5.027,0.787 -6.063,2.417 -0.985,1.675 -1.53,3.499 -1.53,5.571 0.046,0.095 0.046,0.195 0.102,0.345 0.051,0.146 0.051,0.245 0.051,0.292 l 0,12.522 c 0,2.366 0.587,3.945 1.822,4.778 1.18,0.794 2.563,1.234 4.189,1.234 l 0,0.641 c -3.995,0.247 -6.012,2.417 -6.012,6.406 l 0,13.363 c 0,2.361 0.291,4.135 0.98,5.325 0.693,1.182 1.48,1.918 2.469,2.263 0.936,0.296 2.119,0.446 3.45,0.446 l 5.962,0 c 1.479,0 2.714,-0.15 3.696,-0.446 0.938,-0.345 1.771,-1.081 2.414,-2.263 0.596,-1.135 0.892,-2.911 0.892,-5.325 l 0,-13.364 c 0,-3.989 -1.927,-6.108 -5.821,-6.406 l 0,-0.641 0.252,0.146 c 1.676,0 3.053,-0.535 4.09,-1.624 0.984,-1.131 1.479,-2.613 1.479,-4.535 l 0,-12.912 c 0,-2.168 -0.397,-4.088 -1.328,-5.767 -0.892,-1.678 -2.866,-2.465 -5.915,-2.465 l -5.179,0 z m 28.34,26.171 c -0.443,-0.294 -0.643,-0.734 -0.643,-1.229 l 0,-18.337 c 0,-0.444 0.199,-0.89 0.643,-1.232 0.443,-0.396 0.889,-0.543 1.328,-0.543 0.494,0 0.938,0.148 1.281,0.446 0.343,0.294 0.545,0.789 0.545,1.33 l 0,18.337 c 0,0.588 -0.202,0.981 -0.639,1.281 -0.396,0.294 -0.845,0.395 -1.188,0.395 -0.438,0 -0.883,-0.148 -1.327,-0.448 m -1.53,-26.171 c -4.926,0 -7.391,2.563 -7.391,7.837 0.042,0.099 0.042,0.245 0.098,0.442 l 0,0.344 0,15.78 0,0.244 c -0.056,0.146 -0.056,0.243 -0.098,0.397 0,2.216 0.346,4.087 0.984,5.564 0.643,1.479 1.971,2.216 4.093,2.216 2.313,0 4.682,-1.08 6.998,-3.15 l 0,19.274 c 0,0.541 -0.148,0.981 -0.494,1.328 -0.347,0.347 -0.783,0.495 -1.332,0.495 -0.643,0 -1.138,-0.201 -1.429,-0.545 -0.292,-0.393 -0.444,-0.837 -0.444,-1.277 l 0,-12.72 -8.081,0 0,11.532 c 0,3.357 0.736,5.522 2.17,6.46 1.476,0.935 3.15,1.38 5.124,1.38 l 5.277,0 c 2.018,0 3.742,-0.493 5.175,-1.482 1.43,-0.983 2.123,-3.156 2.123,-6.359 l 0,-39.035 c 0,-2.564 -0.301,-4.537 -0.943,-5.769 -0.639,-1.279 -1.476,-2.116 -2.508,-2.467 -1.04,-0.342 -2.274,-0.489 -3.847,-0.489 l -5.475,0 z m 27.8,48.948 0,-19.177 c 0,-0.491 0.25,-0.938 0.646,-1.281 0.437,-0.298 0.885,-0.444 1.332,-0.444 0.436,0 0.884,0.146 1.281,0.444 0.343,0.298 0.533,0.736 0.533,1.281 l 0,19.177 c 0,0.494 -0.145,0.935 -0.486,1.277 -0.301,0.345 -0.744,0.545 -1.328,0.545 -1.332,0 -1.978,-0.64 -1.978,-1.822 m -0.833,-48.948 c -4.883,0 -7.297,2.812 -7.297,8.478 l 0,39.282 c 0,3.203 0.639,5.326 2.021,6.314 1.328,1.034 3.104,1.526 5.276,1.526 l 5.568,0 c 2.114,0 3.793,-0.446 5.07,-1.38 1.281,-0.938 1.928,-3.104 1.928,-6.46 l 0,-18.629 c 0,-2.118 -0.3,-3.843 -0.942,-5.125 -0.639,-1.285 -2.118,-1.926 -4.436,-1.926 -1.031,0 -2.068,0.2 -3.096,0.693 -1.09,0.44 -2.177,1.281 -3.26,2.412 l 0,-18.58 c 0,-0.444 0.152,-0.839 0.44,-1.232 0.296,-0.396 0.743,-0.543 1.335,-0.543 0.639,0 1.131,0.148 1.484,0.543 0.343,0.342 0.533,0.788 0.533,1.232 l 0,11.287 7.94,0 0,-9.514 c 0,-2.463 -0.393,-4.48 -1.285,-6.014 -0.834,-1.626 -2.854,-2.364 -6.009,-2.364 l -5.27,0 z m -433.69,49.489 c -0.298,-0.444 -0.396,-0.888 -0.396,-1.335 l 0,-42.143 c 0,-0.442 0.146,-0.837 0.491,-1.228 0.343,-0.446 0.691,-0.639 1.086,-0.639 0.492,0 0.837,0.144 1.182,0.441 0.296,0.343 0.495,0.787 0.495,1.425 l 0,42.143 c 0,1.289 -0.594,1.929 -1.677,1.929 -0.494,0.001 -0.888,-0.2 -1.181,-0.593 M 29.109,62.858 c -2.659,0 -4.433,0.938 -5.272,2.812 -0.837,1.826 -1.232,3.794 -1.232,5.915 l 0.101,0.048 0,38.891 c 0,2.315 0.294,4.09 0.884,5.271 0.592,1.234 1.33,1.972 2.269,2.27 0.886,0.292 1.972,0.44 3.251,0.44 l 4.981,0 c 2.81,0 4.533,-0.688 5.276,-2.07 0.738,-1.381 1.083,-3.203 1.083,-5.518 l 0,-39.628 c 0,-1.186 -0.152,-2.372 -0.398,-3.6 -0.245,-1.186 -0.837,-2.268 -1.824,-3.304 -0.933,-0.983 -2.311,-1.526 -4.138,-1.526 l -4.981,0 z"
           id="SVGID_4_" /></defs><clipPath
         id="SVGID_5_"><use
           height="100%"
           width="100%"
           y="0"
           x="0"
           style="overflow:visible"
           id="use72"
           overflow="visible"
           xlink:href="#SVGID_4_" /></clipPath><linearGradient
         gradientTransform="matrix(264.17011,-92.781732,-92.781732,-264.17011,20130.652,83403.478)"
         y2="303.80179"
         x2="33.599899"
         y1="303.80179"
         x1="29.648399"
         gradientUnits="userSpaceOnUse"
         id="SVGID_6_"><stop
           id="stop75"
           style="stop-color:#916C37"
           offset="0" /><stop
           id="stop77"
           style="stop-color:#785929"
           offset="0.0332" /><stop
           id="stop79"
           style="stop-color:#785929"
           offset="0.0588" /><stop
           id="stop81"
           style="stop-color:#927237"
           offset="0.0814" /><stop
           id="stop83"
           style="stop-color:#C8A862"
           offset="0.1071" /><stop
           id="stop85"
           style="stop-color:#D1B574"
           offset="0.1128" /><stop
           id="stop87"
           style="stop-color:#E4D099"
           offset="0.126" /><stop
           id="stop89"
           style="stop-color:#F0E1B1"
           offset="0.1367" /><stop
           id="stop91"
           style="stop-color:#F5E7BA"
           offset="0.1433" /><stop
           id="stop93"
           style="stop-color:#F5E7BA"
           offset="0.1689" /><stop
           id="stop95"
           style="stop-color:#F3E5B7"
           offset="0.1828" /><stop
           id="stop97"
           style="stop-color:#F0DFAD"
           offset="0.1934" /><stop
           id="stop99"
           style="stop-color:#EAD59D"
           offset="0.2029" /><stop
           id="stop101"
           style="stop-color:#E8D299"
           offset="0.2051" /><stop
           id="stop103"
           style="stop-color:#906E32"
           offset="0.3228" /><stop
           id="stop105"
           style="stop-color:#FEF6BC"
           offset="0.4835" /><stop
           id="stop107"
           style="stop-color:#906E32"
           offset="0.5989" /><stop
           id="stop109"
           style="stop-color:#A2803C"
           offset="0.6758" /><stop
           id="stop111"
           style="stop-color:#D1B473"
           offset="0.8235" /><stop
           id="stop113"
           style="stop-color:#EEDBA6"
           offset="0.8537" /><stop
           id="stop115"
           style="stop-color:#FEF8DA"
           offset="0.8839" /><stop
           id="stop117"
           style="stop-color:#FEF8DA"
           offset="0.9291" /><stop
           id="stop119"
           style="stop-color:#ECDA9E"
           offset="0.9397" /><stop
           id="stop121"
           style="stop-color:#CDAD6B"
           offset="0.9548" /><stop
           id="stop123"
           style="stop-color:#826032"
           offset="0.9744" /><stop
           id="stop125"
           style="stop-color:#826032"
           offset="1" /></linearGradient><polygon
         style="fill:url(#SVGID_6_)"
         id="polygon127"
         points="55.747,470.104 -77.282,91.345 424.731,-84.971 557.758,293.787 "
         clip-path="url(#SVGID_5_)" /></g></g></svg>